<?xml version="1.0" encoding="UTF-8" standalone="no"?><!DOCTYPE svg PUBLIC "-//W3C//DTD SVG 1.1//EN" "http://www.w3.org/Graphics/SVG/1.1/DTD/svg11.dtd"><svg width="100%" height="100%" viewBox="0 0 4656 3195" version="1.1" xmlns="http://www.w3.org/2000/svg" xmlns:xlink="http://www.w3.org/1999/xlink" xml:space="preserve" xmlns:serif="http://www.serif.com/" style="fill-rule:evenodd;clip-rule:evenodd;stroke-linecap:round;stroke-linejoin:round;stroke-miterlimit:1.5;"><rect x="0" y="0" width="4655.56" height="3194.44" style="fill:#fff;"/><circle cx="4355.56" cy="446.868" r="27.778" style="fill:#f0d7c2;stroke:#cc7833;stroke-width:5.56px;"/><circle cx="4355.56" cy="357.979" r="27.778" style="fill:#43648c;fill-opacity:0.57;stroke:#43648c;stroke-width:5.56px;"/><circle cx="4355.56" cy="269.09" r="27.778" style="fill:#dbdbde;stroke:#86858f;stroke-width:5.56px;"/><g><g><rect x="336.111" y="152.778" width="3888.89" height="2777.78" style="fill:none;fill-rule:nonzero;stroke:#ddd;stroke-width:5.56px;stroke-linecap:butt;stroke-linejoin:miter;stroke-miterlimit:4;"/><g><g><g><g><g><path d="M336.111,152.778l0,2777.78" style="fill:none;fill-rule:nonzero;stroke:#ddd;stroke-width:5.56px;stroke-linecap:butt;stroke-linejoin:miter;stroke-miterlimit:4;"/><path d="M891.667,152.778l-0,2777.78" style="fill:none;fill-rule:nonzero;stroke:#ddd;stroke-width:5.56px;stroke-linecap:butt;stroke-linejoin:miter;stroke-miterlimit:4;"/><path d="M1447.22,152.778l0,2777.78" style="fill:none;fill-rule:nonzero;stroke:#ddd;stroke-width:5.56px;stroke-linecap:butt;stroke-linejoin:miter;stroke-miterlimit:4;"/><path d="M2002.78,152.778l-0,2777.78" style="fill:none;fill-rule:nonzero;stroke:#ddd;stroke-width:5.56px;stroke-linecap:butt;stroke-linejoin:miter;stroke-miterlimit:4;"/><path d="M2558.33,152.778l0,2777.78" style="fill:none;fill-rule:nonzero;stroke:#ddd;stroke-width:5.56px;stroke-linecap:butt;stroke-linejoin:miter;stroke-miterlimit:4;"/><path d="M3113.89,152.778l-0,2777.78" style="fill:none;fill-rule:nonzero;stroke:#ddd;stroke-width:5.56px;stroke-linecap:butt;stroke-linejoin:miter;stroke-miterlimit:4;"/><path d="M3669.44,152.778l0,2777.78" style="fill:none;fill-rule:nonzero;stroke:#ddd;stroke-width:5.56px;stroke-linecap:butt;stroke-linejoin:miter;stroke-miterlimit:4;"/><path d="M4225,152.778l0,2777.78" style="fill:none;fill-rule:nonzero;stroke:#ddd;stroke-width:5.56px;stroke-linecap:butt;stroke-linejoin:miter;stroke-miterlimit:4;"/></g></g></g></g><g><g><g><g><path d="M336.111,2830.56l3888.89,-0" style="fill:none;fill-rule:nonzero;stroke:#ddd;stroke-width:5.56px;stroke-linecap:butt;stroke-linejoin:miter;stroke-miterlimit:4;"/><path d="M336.111,2336.11l3888.89,0" style="fill:none;fill-rule:nonzero;stroke:#ddd;stroke-width:5.56px;stroke-linecap:butt;stroke-linejoin:miter;stroke-miterlimit:4;"/><path d="M336.111,1841.67l3888.89,-0" style="fill:none;fill-rule:nonzero;stroke:#ddd;stroke-width:5.56px;stroke-linecap:butt;stroke-linejoin:miter;stroke-miterlimit:4;"/><path d="M336.111,1341.67l3888.89,-0" style="fill:none;fill-rule:nonzero;stroke:#ddd;stroke-width:5.56px;stroke-linecap:butt;stroke-linejoin:miter;stroke-miterlimit:4;"/><path d="M336.111,847.222l3888.89,0" style="fill:none;fill-rule:nonzero;stroke:#ddd;stroke-width:5.56px;stroke-linecap:butt;stroke-linejoin:miter;stroke-miterlimit:4;"/><path d="M336.111,352.778l3888.89,-0" style="fill:none;fill-rule:nonzero;stroke:#ddd;stroke-width:5.56px;stroke-linecap:butt;stroke-linejoin:miter;stroke-miterlimit:4;"/></g></g></g></g><g><g><g><g><path d="M336.111,2930.56l0,27.777" style="fill:none;fill-rule:nonzero;stroke:#888;stroke-width:5.56px;stroke-linecap:butt;stroke-linejoin:miter;stroke-miterlimit:4;"/><path d="M891.667,2930.56l-0,27.777" style="fill:none;fill-rule:nonzero;stroke:#888;stroke-width:5.56px;stroke-linecap:butt;stroke-linejoin:miter;stroke-miterlimit:4;"/><path d="M1447.22,2930.56l0,27.777" style="fill:none;fill-rule:nonzero;stroke:#888;stroke-width:5.56px;stroke-linecap:butt;stroke-linejoin:miter;stroke-miterlimit:4;"/><path d="M2002.78,2930.56l-0,27.777" style="fill:none;fill-rule:nonzero;stroke:#888;stroke-width:5.56px;stroke-linecap:butt;stroke-linejoin:miter;stroke-miterlimit:4;"/><path d="M2558.33,2930.56l0,27.777" style="fill:none;fill-rule:nonzero;stroke:#888;stroke-width:5.56px;stroke-linecap:butt;stroke-linejoin:miter;stroke-miterlimit:4;"/><path d="M3113.89,2930.56l-0,27.777" style="fill:none;fill-rule:nonzero;stroke:#888;stroke-width:5.56px;stroke-linecap:butt;stroke-linejoin:miter;stroke-miterlimit:4;"/><path d="M3669.44,2930.56l0,27.777" style="fill:none;fill-rule:nonzero;stroke:#888;stroke-width:5.56px;stroke-linecap:butt;stroke-linejoin:miter;stroke-miterlimit:4;"/><path d="M4225,2930.56l0,27.777" style="fill:none;fill-rule:nonzero;stroke:#888;stroke-width:5.56px;stroke-linecap:butt;stroke-linejoin:miter;stroke-miterlimit:4;"/></g><g><text x="336.111px" y="3041.67px" style="font-family:'ArialMT', 'Arial', sans-serif;font-size:88.889px;">0</text><text x="842.231px" y="3041.67px" style="font-family:'ArialMT', 'Arial', sans-serif;font-size:88.889px;">20</text><text x="1397.79px" y="3041.67px" style="font-family:'ArialMT', 'Arial', sans-serif;font-size:88.889px;">40</text><text x="1953.34px" y="3041.67px" style="font-family:'ArialMT', 'Arial', sans-serif;font-size:88.889px;">60</text><text x="2508.9px" y="3041.67px" style="font-family:'ArialMT', 'Arial', sans-serif;font-size:88.889px;">80</text><text x="3039.74px" y="3041.67px" style="font-family:'ArialMT', 'Arial', sans-serif;font-size:88.889px;">100</text><text x="3595.29px" y="3041.67px" style="font-family:'ArialMT', 'Arial', sans-serif;font-size:88.889px;">120</text><text x="4076.69px" y="3041.67px" style="font-family:'ArialMT', 'Arial', sans-serif;font-size:88.889px;">140</text></g><g><path d="M336.111,2930.56l3888.89,-0" style="fill:none;fill-rule:nonzero;stroke:#888;stroke-width:5.56px;stroke-linecap:butt;stroke-linejoin:miter;stroke-miterlimit:4;"/></g><g><text x="2056.66px" y="3152.78px" style="font-family:'Arial-BoldMT', 'Arial', sans-serif;font-weight:700;font-size:88.889px;">T<tspan x="2109.35px 2134.05px " y="3152.78px 3152.78px ">im</tspan>e (min)</text></g></g></g></g><g><g><g><g><path d="M336.111,2830.56l-27.778,-0" style="fill:none;fill-rule:nonzero;stroke:#888;stroke-width:5.56px;stroke-linecap:butt;stroke-linejoin:miter;stroke-miterlimit:4;"/><path d="M336.111,2336.11l-27.778,0" style="fill:none;fill-rule:nonzero;stroke:#888;stroke-width:5.56px;stroke-linecap:butt;stroke-linejoin:miter;stroke-miterlimit:4;"/><path d="M336.111,1841.67l-27.778,-0" style="fill:none;fill-rule:nonzero;stroke:#888;stroke-width:5.56px;stroke-linecap:butt;stroke-linejoin:miter;stroke-miterlimit:4;"/><path d="M336.111,1341.67l-27.778,-0" style="fill:none;fill-rule:nonzero;stroke:#888;stroke-width:5.56px;stroke-linecap:butt;stroke-linejoin:miter;stroke-miterlimit:4;"/><path d="M336.111,847.222l-27.778,0" style="fill:none;fill-rule:nonzero;stroke:#888;stroke-width:5.56px;stroke-linecap:butt;stroke-linejoin:miter;stroke-miterlimit:4;"/><path d="M336.111,352.778l-27.778,-0" style="fill:none;fill-rule:nonzero;stroke:#888;stroke-width:5.56px;stroke-linecap:butt;stroke-linejoin:miter;stroke-miterlimit:4;"/></g><g><text x="144.054px" y="2859.13px" style="font-family:'ArialMT', 'Arial', sans-serif;font-size:88.889px;">-1.5</text><text x="144.054px" y="2363.1px" style="font-family:'ArialMT', 'Arial', sans-serif;font-size:88.889px;">-1.0</text><text x="144.054px" y="1867.06px" style="font-family:'ArialMT', 'Arial', sans-serif;font-size:88.889px;">-0.5</text><text x="173.655px" y="1371.03px" style="font-family:'ArialMT', 'Arial', sans-serif;font-size:88.889px;">0.0</text><text x="173.655px" y="875px" style="font-family:'ArialMT', 'Arial', sans-serif;font-size:88.889px;">0.5</text><text x="173.655px" y="378.968px" style="font-family:'ArialMT', 'Arial', sans-serif;font-size:88.889px;">1.0</text></g><g><path d="M336.111,2930.56l0,-2777.78" style="fill:none;fill-rule:nonzero;stroke:#888;stroke-width:5.56px;stroke-linecap:butt;stroke-linejoin:miter;stroke-miterlimit:4;"/></g><g><g transform="matrix(-3.82857e-16,-1,1,-3.82857e-16,-1436.5,1646.83)"><text x="-49.588px" y="1541.67px" style="font-family:'Arial-BoldMT', 'Arial', sans-serif;font-weight:700;font-size:88.889px;">GRA<tspan x="141.341px 200.629px " y="1541.67px 1541.67px ">VY</tspan></text></g></g></g></g></g><g><g><rect x="333.333" y="150" width="3888.89" height="2777.78" style="fill:none;fill-rule:nonzero;"/><g><g><path d="M333.333,2026.99l111.111,15.849l166.667,11.494l111.111,9.97l166.667,-268.519l111.111,-2.963l166.667,-62.031l111.111,-0.821l166.666,-127.02l111.112,-2.403l166.666,-74.943l111.111,4.008l166.667,-2.277l111.111,-0.251l166.667,7.031l111.111,0.484l166.667,54.608l111.111,5.474l166.666,-59.926l111.111,4.55l166.667,-45.821l111.111,-1.072l166.667,-137.339l111.111,0.23l166.667,181.711l111.111,0.265l166.666,1237.55l111.112,0l-0,-841.115l-111.112,-63.367l-166.666,-620.877l-111.111,-9.885l-166.667,-26.14l-111.111,-1.66l-166.667,159.668l-111.111,1.128l-166.667,37.168l-111.111,2.224l-166.666,84.095l-111.111,2.729l-166.667,-63.767l-111.111,0.351l-166.667,6.988l-111.111,0.244l-166.667,-8.948l-111.111,4.841l-166.666,63.902l-111.112,0.078l-166.666,123.849l-111.111,-3.967l-166.667,40.832l-111.111,3.356l-166.667,222.862l-111.111,3.489l-166.667,-447.259l-111.111,0.285l0,581.058Z" style="fill:#86858f;fill-opacity:0.3;fill-rule:nonzero;"/></g></g></g><g><rect x="333.333" y="150" width="3888.89" height="2777.78" style="fill:none;fill-rule:nonzero;"/><g><g><path d="M333.333,2233.64l111.111,1.552l166.667,-379.855l111.111,-0.992l166.667,-283.782l111.111,1.655l166.667,-100.054l111.111,-1.816l166.666,-86.701l111.112,-0.79l166.666,-92.91l111.111,-1.309l166.667,-88.388l111.111,-0.714l166.667,-71.011l111.111,3.985l166.667,-69.566l111.111,-0.391l166.666,-148.091l111.111,6.934l166.667,-616.389l111.111,-0l444.445,1735.42l111.111,0l-111.111,0l-444.445,-1735.42l-111.111,-0l-166.667,405.175l-111.111,4.768l-166.666,201.869l-111.111,5.762l-166.667,120.076l-111.111,0.146l-166.667,82.583l-111.111,-5.181l-166.667,101.842l-111.111,1.215l-166.666,101.839l-111.112,1.351l-166.666,86.051l-111.111,-1.635l-166.667,92.736l-111.111,0.593l-166.667,284.439l-111.111,5.013l-166.667,358.522l-111.111,-2.34l0,83.809Z" style="fill:#43648c;fill-opacity:0.3;fill-rule:nonzero;"/></g></g></g><g><rect x="333.333" y="150" width="3888.89" height="2777.78" style="fill:none;fill-rule:nonzero;"/><g><g><path d="M333.333,2051.28l111.111,-6.382l166.667,-40.001l111.111,2.916l166.667,-91.593l111.111,5.054l166.667,-171.224l111.111,3.251l166.666,-78.727l111.112,3.758l166.666,-120.07l111.111,-3.627l166.667,-58.498l111.111,1.091l166.667,64.576l111.111,-0.068l166.667,-9.288l111.111,5.934l166.666,-27.441l111.111,3.99l166.667,50.196l111.111,5.372l166.667,-215.517l111.111,-1.195l166.667,250.097l111.111,-14.295l-0,-346.973l-111.111,-0.867l-166.667,-37.836l-111.111,-3.595l-166.667,227.655l-111.111,0.688l-166.667,-33.348l-111.111,0.495l-166.666,40.048l-111.111,-3.908l-166.667,15.583l-111.111,1.797l-166.667,-52.829l-111.111,4.696l-166.667,55.735l-111.111,0.308l-166.666,119.528l-111.112,-2.284l-166.666,66.858l-111.111,-0.268l-166.667,151.626l-111.111,-3.132l-166.667,63.821l-111.111,1.014l-166.667,-311.595l-111.111,-8.079l0,496.553Z" style="fill:#cc7833;fill-opacity:0.3;fill-rule:nonzero;"/></g></g></g></g><g><g><rect x="333.333" y="150" width="3888.89" height="2777.78" style="fill:none;fill-rule:nonzero;"/><g><g><path d="M333.333,1747.96l111.111,-0l166.667,226.2l111.111,0l166.667,-247.12l111.111,-0l166.667,-48.932l111.111,0l166.666,-125.665l111.112,-0l166.666,-69.895l111.111,-0l166.667,-0.023l111.111,-0l166.667,1.667l111.111,-0l166.667,60.03l111.111,0l166.666,-69.095l111.111,-0l166.667,-42.396l111.111,0l166.667,-151.086l111.111,0l166.667,108.75l111.111,-0l166.666,990.248l111.112,0" style="fill:none;fill-rule:nonzero;stroke:#86858f;stroke-width:11.11px;stroke-linecap:butt;stroke-linejoin:miter;stroke-miterlimit:4;"/></g></g></g><g><rect x="333.333" y="150" width="3888.89" height="2777.78" style="fill:none;fill-rule:nonzero;"/><g><g><path d="M333.333,2192.47l111.111,0l166.667,-368.863l111.111,-0l166.667,-287.37l111.111,-0l166.667,-95.218l111.111,0l166.666,-86.605l111.112,-0l166.666,-99.302l111.111,-0l166.667,-94.771l111.111,-0l166.667,-75.287l111.111,0l166.667,-93.337l111.111,0l166.666,-176.407l111.111,0l166.667,-510.3l111.111,-0l444.445,1735.42l111.111,0" style="fill:none;fill-rule:nonzero;stroke:#43648c;stroke-width:11.11px;stroke-linecap:butt;stroke-linejoin:miter;stroke-miterlimit:4;"/></g></g></g><g><rect x="333.333" y="150" width="3888.89" height="2777.78" style="fill:none;fill-rule:nonzero;"/><g><g><path d="M333.333,1802.98l111.111,-0l166.667,138.072l111.111,0l166.667,-74.787l111.111,-0l166.667,-159.514l111.111,0l166.666,-70.06l111.112,0l166.666,-120.102l111.111,-0l166.667,-58.144l111.111,-0l166.667,56.731l111.111,-0l166.667,-12.054l111.111,0l166.666,-27.886l111.111,0l166.667,41.705l111.111,0l166.667,-214.325l111.111,0l166.667,131.016l111.111,0" style="fill:none;fill-rule:nonzero;stroke:#cc7833;stroke-width:11.11px;stroke-linecap:butt;stroke-linejoin:miter;stroke-miterlimit:4;"/></g></g></g></g><g><g><rect x="4322.22" y="150" width="305.556" height="338.889" style="fill:none;fill-rule:nonzero;"/><g><g><g><g><g><g><rect x="4322.22" y="238.889" width="301.969" height="69.444" style="fill:none;fill-rule:nonzero;"/><g><g><text x="4411.11px" y="288.889px" style="font-family:'ArialMT', 'Arial', sans-serif;font-size:55.556px;">BP_45</text></g></g></g><g><rect x="4322.22" y="327.778" width="301.969" height="69.444" style="fill:none;fill-rule:nonzero;"/><g><g><text x="4411.11px" y="377.778px" style="font-family:'ArialMT', 'Arial', sans-serif;font-size:55.556px;">C18_45</text></g></g></g><g><rect x="4322.22" y="416.667" width="301.969" height="69.444" style="fill:none;fill-rule:nonzero;"/><g><g><text x="4411.11px" y="466.667px" style="font-family:'ArialMT', 'Arial', sans-serif;font-size:55.556px;">PGC_45</text></g></g></g></g></g></g></g><g><text x="4322.22px" y="200px" style="font-family:'Arial-BoldMT', 'Arial', sans-serif;font-weight:700;font-size:61.111px;">source</text></g></g></g></g><g><g><g><g><text x="1647.07px" y="105.556px" style="font-family:'Arial-BoldMT', 'Arial', sans-serif;font-weight:700;font-size:100px;">GRA<tspan x="1861.86px 1928.56px 1993.45px 2021.24px " y="105.556px 105.556px 105.556px 105.556px ">VY v</tspan>s. Retention T<tspan x="2736.18px 2763.96px " y="105.556px 105.556px ">im</tspan>e</text></g></g></g></g></g></g></g></svg>