<svg class="marks" width="13935" height="5130" viewBox="0 0 929 342" version="1.1" xmlns="http://www.w3.org/2000/svg" xmlns:xlink="http://www.w3.org/1999/xlink"><rect width="929" height="342" style="fill: white;"></rect><g transform="translate(44,5)"><g class="mark-group role-frame root"><g transform="translate(0,0)"><path class="background" d="M0.5,0.5h800v300h-800Z" style="fill: none; stroke: #ddd;"></path><g><g class="mark-group role-axis"><g transform="translate(0.5,300.5)"><path class="background" d="M0,0h0v0h0Z" style="pointer-events: none; fill: none;"></path><g><g class="mark-rule role-axis-grid" style="pointer-events: none;"><line transform="translate(0,-300)" x2="0" y2="300" style="fill: none; stroke: #ddd; stroke-width: 1; opacity: 1;"></line><line transform="translate(44,-300)" x2="0" y2="300" style="fill: none; stroke: #ddd; stroke-width: 1; opacity: 1;"></line><line transform="translate(89,-300)" x2="0" y2="300" style="fill: none; stroke: #ddd; stroke-width: 1; opacity: 1;"></line><line transform="translate(133,-300)" x2="0" y2="300" style="fill: none; stroke: #ddd; stroke-width: 1; opacity: 1;"></line><line transform="translate(178,-300)" x2="0" y2="300" style="fill: none; stroke: #ddd; stroke-width: 1; opacity: 1;"></line><line transform="translate(222,-300)" x2="0" y2="300" style="fill: none; stroke: #ddd; stroke-width: 1; opacity: 1;"></line><line transform="translate(267,-300)" x2="0" y2="300" style="fill: none; stroke: #ddd; stroke-width: 1; opacity: 1;"></line><line transform="translate(311,-300)" x2="0" y2="300" style="fill: none; stroke: #ddd; stroke-width: 1; opacity: 1;"></line><line transform="translate(356,-300)" x2="0" y2="300" style="fill: none; stroke: #ddd; stroke-width: 1; opacity: 1;"></line><line transform="translate(400,-300)" x2="0" y2="300" style="fill: none; stroke: #ddd; stroke-width: 1; opacity: 1;"></line><line transform="translate(444,-300)" x2="0" y2="300" style="fill: none; stroke: #ddd; stroke-width: 1; opacity: 1;"></line><line transform="translate(489,-300)" x2="0" y2="300" style="fill: none; stroke: #ddd; stroke-width: 1; opacity: 1;"></line><line transform="translate(533,-300)" x2="0" y2="300" style="fill: none; stroke: #ddd; stroke-width: 1; opacity: 1;"></line><line transform="translate(578,-300)" x2="0" y2="300" style="fill: none; stroke: #ddd; stroke-width: 1; opacity: 1;"></line><line transform="translate(622,-300)" x2="0" y2="300" style="fill: none; stroke: #ddd; stroke-width: 1; opacity: 1;"></line><line transform="translate(667,-300)" x2="0" y2="300" style="fill: none; stroke: #ddd; stroke-width: 1; opacity: 1;"></line><line transform="translate(711,-300)" x2="0" y2="300" style="fill: none; stroke: #ddd; stroke-width: 1; opacity: 1;"></line><line transform="translate(756,-300)" x2="0" y2="300" style="fill: none; stroke: #ddd; stroke-width: 1; opacity: 1;"></line><line transform="translate(800,-300)" x2="0" y2="300" style="fill: none; stroke: #ddd; stroke-width: 1; opacity: 1;"></line></g></g><path class="foreground" d="" style="pointer-events: none; display: none; fill: none;"></path></g></g><g class="mark-group role-axis"><g transform="translate(0.5,0.5)"><path class="background" d="M0,0h0v0h0Z" style="pointer-events: none; fill: none;"></path><g><g class="mark-rule role-axis-grid" style="pointer-events: none;"><line transform="translate(0,300)" x2="800" y2="0" style="fill: none; stroke: #ddd; stroke-width: 1; opacity: 1;"></line><line transform="translate(0,246)" x2="800" y2="0" style="fill: none; stroke: #ddd; stroke-width: 1; opacity: 1;"></line><line transform="translate(0,193)" x2="800" y2="0" style="fill: none; stroke: #ddd; stroke-width: 1; opacity: 1;"></line><line transform="translate(0,139)" x2="800" y2="0" style="fill: none; stroke: #ddd; stroke-width: 1; opacity: 1;"></line><line transform="translate(0,86)" x2="800" y2="0" style="fill: none; stroke: #ddd; stroke-width: 1; opacity: 1;"></line><line transform="translate(0,32)" x2="800" y2="0" style="fill: none; stroke: #ddd; stroke-width: 1; opacity: 1;"></line></g></g><path class="foreground" d="" style="pointer-events: none; display: none; fill: none;"></path></g></g><g class="mark-group role-axis"><g transform="translate(0.5,300.5)"><path class="background" d="M0,0h0v0h0Z" style="pointer-events: none; fill: none;"></path><g><g class="mark-rule role-axis-tick" style="pointer-events: none;"><line transform="translate(0,0)" x2="0" y2="5" style="fill: none; stroke: #888; stroke-width: 1; opacity: 1;"></line><line transform="translate(44,0)" x2="0" y2="5" style="fill: none; stroke: #888; stroke-width: 1; opacity: 1;"></line><line transform="translate(89,0)" x2="0" y2="5" style="fill: none; stroke: #888; stroke-width: 1; opacity: 1;"></line><line transform="translate(133,0)" x2="0" y2="5" style="fill: none; stroke: #888; stroke-width: 1; opacity: 1;"></line><line transform="translate(178,0)" x2="0" y2="5" style="fill: none; stroke: #888; stroke-width: 1; opacity: 1;"></line><line transform="translate(222,0)" x2="0" y2="5" style="fill: none; stroke: #888; stroke-width: 1; opacity: 1;"></line><line transform="translate(267,0)" x2="0" y2="5" style="fill: none; stroke: #888; stroke-width: 1; opacity: 1;"></line><line transform="translate(311,0)" x2="0" y2="5" style="fill: none; stroke: #888; stroke-width: 1; opacity: 1;"></line><line transform="translate(356,0)" x2="0" y2="5" style="fill: none; stroke: #888; stroke-width: 1; opacity: 1;"></line><line transform="translate(400,0)" x2="0" y2="5" style="fill: none; stroke: #888; stroke-width: 1; opacity: 1;"></line><line transform="translate(444,0)" x2="0" y2="5" style="fill: none; stroke: #888; stroke-width: 1; opacity: 1;"></line><line transform="translate(489,0)" x2="0" y2="5" style="fill: none; stroke: #888; stroke-width: 1; opacity: 1;"></line><line transform="translate(533,0)" x2="0" y2="5" style="fill: none; stroke: #888; stroke-width: 1; opacity: 1;"></line><line transform="translate(578,0)" x2="0" y2="5" style="fill: none; stroke: #888; stroke-width: 1; opacity: 1;"></line><line transform="translate(622,0)" x2="0" y2="5" style="fill: none; stroke: #888; stroke-width: 1; opacity: 1;"></line><line transform="translate(667,0)" x2="0" y2="5" style="fill: none; stroke: #888; stroke-width: 1; opacity: 1;"></line><line transform="translate(711,0)" x2="0" y2="5" style="fill: none; stroke: #888; stroke-width: 1; opacity: 1;"></line><line transform="translate(756,0)" x2="0" y2="5" style="fill: none; stroke: #888; stroke-width: 1; opacity: 1;"></line><line transform="translate(800,0)" x2="0" y2="5" style="fill: none; stroke: #888; stroke-width: 1; opacity: 1;"></line></g><g class="mark-text role-axis-label" style="pointer-events: none;"><text text-anchor="start" transform="translate(0,15)" style="font-family: sans-serif; font-size: 10px; fill: #000; opacity: 1;">200</text><text text-anchor="middle" transform="translate(44.44444444444444,15)" style="font-family: sans-serif; font-size: 10px; fill: #000; opacity: 1;">300</text><text text-anchor="middle" transform="translate(88.88888888888889,15)" style="font-family: sans-serif; font-size: 10px; fill: #000; opacity: 1;">400</text><text text-anchor="middle" transform="translate(133.33333333333331,15)" style="font-family: sans-serif; font-size: 10px; fill: #000; opacity: 1;">500</text><text text-anchor="middle" transform="translate(177.77777777777777,15)" style="font-family: sans-serif; font-size: 10px; fill: #000; opacity: 1;">600</text><text text-anchor="middle" transform="translate(222.22222222222223,15)" style="font-family: sans-serif; font-size: 10px; fill: #000; opacity: 1;">700</text><text text-anchor="middle" transform="translate(266.66666666666663,15)" style="font-family: sans-serif; font-size: 10px; fill: #000; opacity: 1;">800</text><text text-anchor="middle" transform="translate(311.11111111111114,15)" style="font-family: sans-serif; font-size: 10px; fill: #000; opacity: 1;">900</text><text text-anchor="middle" transform="translate(355.55555555555554,15)" style="font-family: sans-serif; font-size: 10px; fill: #000; opacity: 1;">1,000</text><text text-anchor="middle" transform="translate(400,15)" style="font-family: sans-serif; font-size: 10px; fill: #000; opacity: 1;">1,100</text><text text-anchor="middle" transform="translate(444.44444444444446,15)" style="font-family: sans-serif; font-size: 10px; fill: #000; opacity: 1;">1,200</text><text text-anchor="middle" transform="translate(488.8888888888889,15)" style="font-family: sans-serif; font-size: 10px; fill: #000; opacity: 1;">1,300</text><text text-anchor="middle" transform="translate(533.3333333333333,15)" style="font-family: sans-serif; font-size: 10px; fill: #000; opacity: 1;">1,400</text><text text-anchor="middle" transform="translate(577.7777777777777,15)" style="font-family: sans-serif; font-size: 10px; fill: #000; opacity: 1;">1,500</text><text text-anchor="middle" transform="translate(622.2222222222223,15)" style="font-family: sans-serif; font-size: 10px; fill: #000; opacity: 1;">1,600</text><text text-anchor="middle" transform="translate(666.6666666666667,15)" style="font-family: sans-serif; font-size: 10px; fill: #000; opacity: 1;">1,700</text><text text-anchor="middle" transform="translate(711.1111111111111,15)" style="font-family: sans-serif; font-size: 10px; fill: #000; opacity: 1;">1,800</text><text text-anchor="middle" transform="translate(755.5555555555555,15)" style="font-family: sans-serif; font-size: 10px; fill: #000; opacity: 1;">1,900</text><text text-anchor="end" transform="translate(800,15)" style="font-family: sans-serif; font-size: 10px; fill: #000; opacity: 1;">2,000</text></g><g class="mark-rule role-axis-domain" style="pointer-events: none;"><line transform="translate(0,0)" x2="800" y2="0" style="fill: none; stroke: #888; stroke-width: 1; opacity: 1;"></line></g><g class="mark-text role-axis-title" style="pointer-events: none;"><text text-anchor="middle" transform="translate(400,30)" style="font-family: sans-serif; font-size: 11px; font-weight: bold; fill: #000; opacity: 1;">Mass</text></g></g><path class="foreground" d="" style="pointer-events: none; display: none; fill: none;"></path></g></g><g class="mark-group role-axis"><g transform="translate(0.5,0.5)"><path class="background" d="M0,0h0v0h0Z" style="pointer-events: none; fill: none;"></path><g><g class="mark-rule role-axis-tick" style="pointer-events: none;"><line transform="translate(0,300)" x2="-5" y2="0" style="fill: none; stroke: #888; stroke-width: 1; opacity: 1;"></line><line transform="translate(0,246)" x2="-5" y2="0" style="fill: none; stroke: #888; stroke-width: 1; opacity: 1;"></line><line transform="translate(0,193)" x2="-5" y2="0" style="fill: none; stroke: #888; stroke-width: 1; opacity: 1;"></line><line transform="translate(0,139)" x2="-5" y2="0" style="fill: none; stroke: #888; stroke-width: 1; opacity: 1;"></line><line transform="translate(0,86)" x2="-5" y2="0" style="fill: none; stroke: #888; stroke-width: 1; opacity: 1;"></line><line transform="translate(0,32)" x2="-5" y2="0" style="fill: none; stroke: #888; stroke-width: 1; opacity: 1;"></line></g><g class="mark-text role-axis-label" style="pointer-events: none;"><text text-anchor="end" transform="translate(-7,303)" style="font-family: sans-serif; font-size: 10px; fill: #000; opacity: 1;">0</text><text text-anchor="end" transform="translate(-7,249.42857142857142)" style="font-family: sans-serif; font-size: 10px; fill: #000; opacity: 1;">50</text><text text-anchor="end" transform="translate(-7,195.85714285714283)" style="font-family: sans-serif; font-size: 10px; fill: #000; opacity: 1;">100</text><text text-anchor="end" transform="translate(-7,142.28571428571428)" style="font-family: sans-serif; font-size: 10px; fill: #000; opacity: 1;">150</text><text text-anchor="end" transform="translate(-7,88.71428571428571)" style="font-family: sans-serif; font-size: 10px; fill: #000; opacity: 1;">200</text><text text-anchor="end" transform="translate(-7,35.14285714285713)" style="font-family: sans-serif; font-size: 10px; fill: #000; opacity: 1;">250</text></g><g class="mark-rule role-axis-domain" style="pointer-events: none;"><line transform="translate(0,300)" x2="0" y2="-300" style="fill: none; stroke: #888; stroke-width: 1; opacity: 1;"></line></g><g class="mark-text role-axis-title" style="pointer-events: none;"><text text-anchor="middle" transform="translate(-27.6845703125,150) rotate(-90) translate(0,-2)" style="font-family: sans-serif; font-size: 11px; font-weight: bold; fill: #000; opacity: 1;">Value</text></g></g><path class="foreground" d="" style="pointer-events: none; display: none; fill: none;"></path></g></g><g class="mark-group role-scope pathgroup"><g transform="translate(0,0)"><path class="background" d="M0,0h800v300h-800Z" style="fill: none;"></path><g><g class="mark-line role-mark marks"><path d="M17.77777777777778,298.92857142857144L22.22222222222222,297.8571428571429L26.666666666666668,297.8571428571429L31.11111111111111,297.8571428571429L35.55555555555556,289.2857142857143L40,288.2142857142857L44.44444444444444,281.7857142857143L48.888888888888886,293.57142857142856L53.333333333333336,290.35714285714283L57.77777777777777,281.7857142857143L62.22222222222222,275.35714285714283L66.66666666666666,255L71.11111111111111,243.21428571428572L75.55555555555556,241.07142857142858L80,245.35714285714286L84.44444444444444,188.57142857142856L88.88888888888889,173.57142857142856L93.33333333333333,168.21428571428572L97.77777777777777,148.92857142857144L102.22222222222221,148.92857142857144L106.66666666666667,146.7857142857143L111.11111111111111,130.71428571428572L115.55555555555554,144.64285714285714L120,125.35714285714285L124.44444444444444,91.07142857142858L128.88888888888889,145.71428571428572L133.33333333333331,144.64285714285714L137.77777777777777,129.64285714285714L142.22222222222223,123.21428571428571L146.66666666666666,135L151.11111111111111,112.5L155.55555555555557,115.71428571428571L160,138.21428571428572L164.44444444444443,128.57142857142858L168.88888888888889,97.49999999999999L173.33333333333334,105L177.77777777777777,112.5L182.22222222222223,137.14285714285717L186.66666666666666,150L191.11111111111111,151.07142857142856L195.55555555555554,161.7857142857143L200,124.28571428571428L204.44444444444443,144.64285714285714L208.8888888888889,166.07142857142858L213.33333333333334,143.57142857142856L217.77777777777777,175.7142857142857L222.22222222222223,185.35714285714286L226.66666666666666,176.78571428571428L231.1111111111111,203.57142857142858L235.55555555555557,205.71428571428572L240,201.42857142857144L244.44444444444446,225L248.88888888888889,222.85714285714286L253.33333333333331,182.14285714285717L257.77777777777777,231.42857142857144L262.22222222222223,235.71428571428572L266.66666666666663,228.2142857142857L271.11111111111114,241.07142857142858L275.55555555555554,240L280,233.57142857142858L284.44444444444446,236.78571428571428L288.88888888888886,241.07142857142858L293.3333333333333,266.7857142857143L297.77777777777777,232.5L302.22222222222223,231.42857142857144L306.6666666666667,253.92857142857142L311.11111111111114,267.8571428571429L315.55555555555554,266.7857142857143L320,265.7142857142857L324.44444444444446,277.5L328.88888888888886,278.57142857142856L333.33333333333337,275.35714285714283L337.77777777777777,285L342.22222222222223,280.7142857142857L346.6666666666667,281.7857142857143L351.1111111111111,286.07142857142856L355.55555555555554,289.2857142857143L360,290.35714285714283L364.44444444444446,288.2142857142857L368.8888888888889,291.42857142857144L373.3333333333333,292.5L377.77777777777777,283.92857142857144L382.22222222222223,287.14285714285717L386.6666666666667,294.6428571428571L391.1111111111111,292.5L395.55555555555554,296.7857142857143L400,297.8571428571429L404.44444444444446,297.8571428571429L408.88888888888886,295.7142857142857L413.33333333333337,288.2142857142857L417.7777777777778,296.7857142857143L422.22222222222223,293.57142857142856L426.6666666666667,293.57142857142856L431.1111111111111,298.92857142857144L435.55555555555554,296.7857142857143L444.44444444444446,297.8571428571429L448.8888888888889,297.8571428571429L453.3333333333333,298.92857142857144L457.77777777777777,298.92857142857144L462.2222222222222,296.7857142857143L466.6666666666667,298.92857142857144L471.11111111111114,298.92857142857144L475.55555555555554,297.8571428571429L480,298.92857142857144L484.4444444444444,298.92857142857144L493.33333333333337,296.7857142857143L502.22222222222223,298.92857142857144L506.66666666666663,298.92857142857144L520,297.8571428571429L564.4444444444445,298.92857142857144" style="fill: none; stroke: #4c78a8; stroke-width: 2;"></path></g></g><path class="foreground" d="" style="display: none; fill: none;"></path></g><g transform="translate(0,0)"><path class="background" d="M0,0h800v300h-800Z" style="fill: none;"></path><g><g class="mark-line role-mark marks"><path d="M22.22222222222222,298.92857142857144L26.666666666666668,298.92857142857144L31.11111111111111,297.8571428571429L35.55555555555556,290.35714285714283L40,295.7142857142857L44.44444444444444,289.2857142857143L48.888888888888886,293.57142857142856L53.333333333333336,281.7857142857143L57.77777777777777,274.2857142857143L62.22222222222222,266.7857142857143L66.66666666666666,271.07142857142856L71.11111111111111,263.57142857142856L75.55555555555556,244.28571428571428L80,253.92857142857142L84.44444444444444,218.57142857142858L88.88888888888889,196.07142857142858L93.33333333333333,185.35714285714286L97.77777777777777,161.7857142857143L102.22222222222221,168.21428571428572L106.66666666666667,154.28571428571428L111.11111111111111,151.07142857142856L115.55555555555554,130.71428571428572L120,120L124.44444444444444,126.42857142857142L128.88888888888889,147.85714285714286L133.33333333333331,142.5L137.77777777777777,158.57142857142858L142.22222222222223,140.35714285714286L146.66666666666666,156.42857142857142L151.11111111111111,136.07142857142858L155.55555555555557,146.7857142857143L160,153.2142857142857L164.44444444444443,147.85714285714286L168.88888888888889,100.71428571428572L173.33333333333334,111.42857142857143L177.77777777777777,145.71428571428572L182.22222222222223,153.2142857142857L186.66666666666666,165L191.11111111111111,173.57142857142856L195.55555555555554,165L200,145.71428571428572L204.44444444444443,146.7857142857143L208.8888888888889,180L213.33333333333334,142.5L217.77777777777777,176.78571428571428L222.22222222222223,187.5L226.66666666666666,198.21428571428572L231.1111111111111,187.5L235.55555555555557,198.21428571428572L240,170.35714285714286L244.44444444444446,210L248.88888888888889,210L253.33333333333331,186.42857142857144L257.77777777777777,234.64285714285714L262.22222222222223,227.14285714285714L266.66666666666663,215.35714285714286L271.11111111111114,231.42857142857144L275.55555555555554,229.28571428571428L280,215.35714285714286L284.44444444444446,221.7857142857143L288.88888888888886,242.14285714285714L293.3333333333333,257.14285714285717L297.77777777777777,236.78571428571428L302.22222222222223,226.07142857142856L306.6666666666667,243.21428571428572L311.11111111111114,253.92857142857142L315.55555555555554,255L320,255L324.44444444444446,271.07142857142856L328.88888888888886,275.35714285714283L333.33333333333337,265.7142857142857L337.77777777777777,274.2857142857143L342.22222222222223,271.07142857142856L346.6666666666667,278.57142857142856L351.1111111111111,286.07142857142856L355.55555555555554,285L360,286.07142857142856L364.44444444444446,286.07142857142856L368.8888888888889,286.07142857142856L373.3333333333333,287.14285714285717L377.77777777777777,286.07142857142856L382.22222222222223,285L386.6666666666667,288.2142857142857L391.1111111111111,285L395.55555555555554,292.5L400,296.7857142857143L404.44444444444446,295.7142857142857L408.88888888888886,292.5L413.33333333333337,287.14285714285717L417.7777777777778,295.7142857142857L422.22222222222223,289.2857142857143L426.6666666666667,293.57142857142856L431.1111111111111,298.92857142857144L435.55555555555554,295.7142857142857L440.00000000000006,298.92857142857144L444.44444444444446,296.7857142857143L448.8888888888889,296.7857142857143L453.3333333333333,297.8571428571429L457.77777777777777,297.8571428571429L462.2222222222222,296.7857142857143L466.6666666666667,296.7857142857143L471.11111111111114,295.7142857142857L475.55555555555554,296.7857142857143L480,298.92857142857144L484.4444444444444,298.92857142857144L493.33333333333337,296.7857142857143L502.22222222222223,298.92857142857144L506.66666666666663,298.92857142857144L511.1111111111111,298.92857142857144L520,296.7857142857143L524.4444444444445,298.92857142857144L533.3333333333333,298.92857142857144L546.6666666666666,298.92857142857144L551.1111111111111,298.92857142857144L564.4444444444445,298.92857142857144" style="fill: none; stroke: #f58518; stroke-width: 2;"></path></g></g><path class="foreground" d="" style="display: none; fill: none;"></path></g><g transform="translate(0,0)"><path class="background" d="M0,0h800v300h-800Z" style="fill: none;"></path><g><g class="mark-line role-mark marks"><path d="M22.22222222222222,298.92857142857144L31.11111111111111,297.8571428571429L35.55555555555556,285L40,297.8571428571429L44.44444444444444,291.42857142857144L48.888888888888886,289.2857142857143L53.333333333333336,291.42857142857144L57.77777777777777,283.92857142857144L62.22222222222222,277.5L66.66666666666666,253.92857142857142L71.11111111111111,264.6428571428571L75.55555555555556,267.8571428571429L80,247.5L84.44444444444444,241.07142857142858L88.88888888888889,214.28571428571428L93.33333333333333,217.5L97.77777777777777,200.3571428571429L102.22222222222221,174.6428571428571L106.66666666666667,181.07142857142858L111.11111111111111,184.2857142857143L115.55555555555554,145.71428571428572L120,150L124.44444444444444,161.7857142857143L128.88888888888889,180L133.33333333333331,199.2857142857143L137.77777777777777,165L142.22222222222223,140.35714285714286L146.66666666666666,192.85714285714283L151.11111111111111,141.42857142857142L155.55555555555557,163.92857142857144L160,153.2142857142857L164.44444444444443,153.2142857142857L168.88888888888889,113.57142857142857L173.33333333333334,105L177.77777777777777,142.5L182.22222222222223,150L186.66666666666666,172.5L191.11111111111111,174.6428571428571L195.55555555555554,176.78571428571428L200,138.21428571428572L204.44444444444443,155.35714285714283L208.8888888888889,163.92857142857144L213.33333333333334,132.85714285714286L217.77777777777777,173.57142857142856L222.22222222222223,184.2857142857143L226.66666666666666,191.78571428571428L231.1111111111111,163.92857142857144L235.55555555555557,187.5L240,165L244.44444444444446,202.5L248.88888888888889,196.07142857142858L253.33333333333331,175.7142857142857L257.77777777777777,211.07142857142856L262.22222222222223,215.35714285714286L266.66666666666663,202.5L271.11111111111114,220.71428571428572L275.55555555555554,217.5L280,214.28571428571428L284.44444444444446,216.42857142857142L288.88888888888886,230.35714285714283L293.3333333333333,230.35714285714283L297.77777777777777,225L302.22222222222223,217.5L306.6666666666667,245.35714285714286L311.11111111111114,258.2142857142857L315.55555555555554,247.5L320,244.28571428571428L324.44444444444446,272.14285714285717L328.88888888888886,268.92857142857144L333.33333333333337,257.14285714285717L337.77777777777777,268.92857142857144L342.22222222222223,263.57142857142856L346.6666666666667,267.8571428571429L351.1111111111111,275.35714285714283L355.55555555555554,282.85714285714283L360,283.92857142857144L364.44444444444446,277.5L368.8888888888889,286.07142857142856L373.3333333333333,286.07142857142856L377.77777777777777,281.7857142857143L382.22222222222223,281.7857142857143L386.6666666666667,290.35714285714283L391.1111111111111,277.5L395.55555555555554,289.2857142857143L400,293.57142857142856L404.44444444444446,295.7142857142857L408.88888888888886,294.6428571428571L413.33333333333337,287.14285714285717L417.7777777777778,294.6428571428571L422.22222222222223,288.2142857142857L426.6666666666667,293.57142857142856L431.1111111111111,293.57142857142856L435.55555555555554,295.7142857142857L440.00000000000006,297.8571428571429L444.44444444444446,295.7142857142857L448.8888888888889,297.8571428571429L453.3333333333333,294.6428571428571L457.77777777777777,296.7857142857143L462.2222222222222,296.7857142857143L466.6666666666667,294.6428571428571L471.11111111111114,295.7142857142857L475.55555555555554,296.7857142857143L480,295.7142857142857L484.4444444444444,298.92857142857144L493.33333333333337,296.7857142857143L497.77777777777777,298.92857142857144L502.22222222222223,298.92857142857144L506.66666666666663,298.92857142857144L520,296.7857142857143L524.4444444444445,298.92857142857144L533.3333333333333,298.92857142857144L546.6666666666666,298.92857142857144L586.6666666666666,298.92857142857144" style="fill: none; stroke: #e45756; stroke-width: 2;"></path></g></g><path class="foreground" d="" style="display: none; fill: none;"></path></g><g transform="translate(0,0)"><path class="background" d="M0,0h800v300h-800Z" style="fill: none;"></path><g><g class="mark-line role-mark marks"><path d="M22.22222222222222,298.92857142857144L31.11111111111111,297.8571428571429L35.55555555555556,294.6428571428571L40,290.35714285714283L44.44444444444444,283.92857142857144L48.888888888888886,288.2142857142857L53.333333333333336,286.07142857142856L57.77777777777777,273.2142857142857L62.22222222222222,275.35714285714283L66.66666666666666,235.71428571428572L71.11111111111111,228.2142857142857L75.55555555555556,193.92857142857142L80,211.07142857142856L84.44444444444444,137.14285714285717L88.88888888888889,81.42857142857144L93.33333333333333,54.642857142857146L97.77777777777777,69.64285714285712L102.22222222222221,15.000000000000014L106.66666666666667,38.57142857142857L111.11111111111111,5.357142857142872L115.55555555555554,37.5L120,8.571428571428575L124.44444444444444,11.785714285714278L128.88888888888889,18.214285714285715L133.33333333333331,50.35714285714285L137.77777777777777,12.857142857142845L142.22222222222223,50.35714285714285L146.66666666666666,41.78571428571427L151.11111111111111,38.57142857142857L155.55555555555557,56.785714285714285L160,57.857142857142854L164.44444444444443,53.571428571428584L168.88888888888889,43.92857142857144L173.33333333333334,42.85714285714287L177.77777777777777,25.714285714285722L182.22222222222223,28.928571428571427L186.66666666666666,76.07142857142857L191.11111111111111,94.28571428571428L195.55555555555554,103.92857142857143L200,70.71428571428572L204.44444444444443,63.21428571428572L208.8888888888889,110.35714285714286L213.33333333333334,96.42857142857142L217.77777777777777,146.7857142857143L222.22222222222223,150L226.66666666666666,130.71428571428572L231.1111111111111,144.64285714285714L235.55555555555557,183.21428571428572L240,114.64285714285714L244.44444444444446,190.7142857142857L248.88888888888889,160.71428571428572L253.33333333333331,187.5L257.77777777777777,193.92857142857142L262.22222222222223,227.14285714285714L266.66666666666663,199.2857142857143L271.11111111111114,192.85714285714283L275.55555555555554,223.92857142857144L280,207.85714285714286L284.44444444444446,212.1428571428571L288.88888888888886,227.14285714285714L293.3333333333333,243.21428571428572L297.77777777777777,215.35714285714286L302.22222222222223,222.85714285714286L306.6666666666667,243.21428571428572L311.11111111111114,241.07142857142858L315.55555555555554,233.57142857142858L320,247.5L324.44444444444446,266.7857142857143L328.88888888888886,267.8571428571429L333.33333333333337,262.5L337.77777777777777,263.57142857142856L342.22222222222223,270L346.6666666666667,272.14285714285717L351.1111111111111,276.42857142857144L355.55555555555554,282.85714285714283L360,270L364.44444444444446,277.5L368.8888888888889,282.85714285714283L373.3333333333333,285L377.77777777777777,281.7857142857143L382.22222222222223,278.57142857142856L386.6666666666667,283.92857142857144L391.1111111111111,278.57142857142856L395.55555555555554,291.42857142857144L400,291.42857142857144L404.44444444444446,288.2142857142857L408.88888888888886,291.42857142857144L413.33333333333337,290.35714285714283L417.7777777777778,294.6428571428571L422.22222222222223,289.2857142857143L426.6666666666667,292.5L431.1111111111111,292.5L435.55555555555554,292.5L440.00000000000006,296.7857142857143L444.44444444444446,293.57142857142856L448.8888888888889,296.7857142857143L453.3333333333333,296.7857142857143L457.77777777777777,298.92857142857144L462.2222222222222,290.35714285714283L466.6666666666667,295.7142857142857L471.11111111111114,295.7142857142857L475.55555555555554,294.6428571428571L480,296.7857142857143L484.4444444444444,297.8571428571429L488.8888888888889,295.7142857142857L493.33333333333337,298.92857142857144L497.77777777777777,297.8571428571429L502.22222222222223,297.8571428571429L506.66666666666663,298.92857142857144L511.1111111111111,296.7857142857143L515.5555555555555,297.8571428571429L520,295.7142857142857L524.4444444444445,297.8571428571429L528.8888888888889,298.92857142857144L533.3333333333333,298.92857142857144L560,298.92857142857144L604.4444444444445,298.92857142857144L782.2222222222222,298.92857142857144" style="fill: none; stroke: #72b7b2; stroke-width: 2;"></path></g></g><path class="foreground" d="" style="display: none; fill: none;"></path></g><g transform="translate(0,0)"><path class="background" d="M0,0h800v300h-800Z" style="fill: none;"></path><g><g class="mark-line role-mark marks"><path d="M31.11111111111111,298.92857142857144L35.55555555555556,290.35714285714283L40,292.5L44.44444444444444,291.42857142857144L48.888888888888886,295.7142857142857L53.333333333333336,287.14285714285717L57.77777777777777,281.7857142857143L62.22222222222222,272.14285714285717L66.66666666666666,238.92857142857144L71.11111111111111,210L75.55555555555556,213.2142857142857L80,205.71428571428572L84.44444444444444,159.64285714285714L88.88888888888889,86.78571428571428L93.33333333333333,100.71428571428572L97.77777777777777,65.35714285714286L102.22222222222221,41.78571428571427L106.66666666666667,53.571428571428584L111.11111111111111,13.928571428571413L115.55555555555554,38.57142857142857L120,37.5L124.44444444444444,22.499999999999986L128.88888888888889,34.2857142857143L133.33333333333331,17.14285714285715L137.77777777777777,26.785714285714292L142.22222222222223,13.928571428571413L146.66666666666666,27.857142857142858L151.11111111111111,7.500000000000007L155.55555555555557,9.642857142857142L160,15.000000000000014L164.44444444444443,24.642857142857157L168.88888888888889,9.642857142857142L173.33333333333334,9.642857142857142L177.77777777777777,32.14285714285713L182.22222222222223,24.642857142857157L186.66666666666666,34.2857142857143L191.11111111111111,42.85714285714287L195.55555555555554,63.21428571428572L200,33.21428571428573L204.44444444444443,35.35714285714286L208.8888888888889,76.07142857142857L213.33333333333334,48.21428571428571L217.77777777777777,97.49999999999999L222.22222222222223,90.00000000000001L226.66666666666666,103.92857142857143L231.1111111111111,138.21428571428572L235.55555555555557,128.57142857142858L240,98.57142857142858L244.44444444444446,156.42857142857142L248.88888888888889,133.92857142857142L253.33333333333331,135L257.77777777777777,160.71428571428572L262.22222222222223,167.14285714285714L266.66666666666663,170.35714285714286L271.11111111111114,162.8571428571429L275.55555555555554,196.07142857142858L280,175.7142857142857L284.44444444444446,188.57142857142856L288.88888888888886,203.57142857142858L293.3333333333333,219.64285714285717L297.77777777777777,195L302.22222222222223,195L306.6666666666667,220.71428571428572L311.11111111111114,217.5L315.55555555555554,201.42857142857144L320,226.07142857142856L324.44444444444446,248.57142857142856L328.88888888888886,242.14285714285714L333.33333333333337,222.85714285714286L337.77777777777777,251.78571428571428L342.22222222222223,248.57142857142856L346.6666666666667,257.14285714285717L351.1111111111111,257.14285714285717L355.55555555555554,272.14285714285717L360,252.85714285714286L364.44444444444446,259.2857142857143L368.8888888888889,270L373.3333333333333,261.42857142857144L377.77777777777777,272.14285714285717L382.22222222222223,265.7142857142857L386.6666666666667,277.5L391.1111111111111,268.92857142857144L395.55555555555554,280.7142857142857L400,285L404.44444444444446,280.7142857142857L408.88888888888886,287.14285714285717L413.33333333333337,286.07142857142856L417.7777777777778,287.14285714285717L422.22222222222223,283.92857142857144L426.6666666666667,287.14285714285717L431.1111111111111,282.85714285714283L435.55555555555554,292.5L440.00000000000006,293.57142857142856L444.44444444444446,288.2142857142857L448.8888888888889,295.7142857142857L453.3333333333333,293.57142857142856L457.77777777777777,293.57142857142856L462.2222222222222,286.07142857142856L466.6666666666667,291.42857142857144L471.11111111111114,292.5L475.55555555555554,292.5L480,295.7142857142857L484.4444444444444,294.6428571428571L488.8888888888889,292.5L493.33333333333337,297.8571428571429L497.77777777777777,297.8571428571429L502.22222222222223,296.7857142857143L506.66666666666663,295.7142857142857L511.1111111111111,296.7857142857143L515.5555555555555,297.8571428571429L520,295.7142857142857L524.4444444444445,297.8571428571429L528.8888888888889,294.6428571428571L533.3333333333333,296.7857142857143L537.7777777777778,297.8571428571429L546.6666666666666,298.92857142857144L555.5555555555555,297.8571428571429L560,298.92857142857144" style="fill: none; stroke: #54a24b; stroke-width: 2;"></path></g></g><path class="foreground" d="" style="display: none; fill: none;"></path></g><g transform="translate(0,0)"><path class="background" d="M0,0h800v300h-800Z" style="fill: none;"></path><g><g class="mark-line role-mark marks"><path d="M35.55555555555556,293.57142857142856L40,298.92857142857144L44.44444444444444,296.7857142857143L48.888888888888886,296.7857142857143L53.333333333333336,289.2857142857143L57.77777777777777,291.42857142857144L62.22222222222222,275.35714285714283L66.66666666666666,266.7857142857143L71.11111111111111,238.92857142857144L75.55555555555556,235.71428571428572L80,215.35714285714286L84.44444444444444,177.85714285714286L88.88888888888889,144.64285714285714L93.33333333333333,130.71428571428572L97.77777777777777,108.21428571428572L102.22222222222221,83.57142857142857L106.66666666666667,96.42857142857142L111.11111111111111,65.35714285714286L115.55555555555554,56.785714285714285L120,57.857142857142854L124.44444444444444,73.92857142857143L128.88888888888889,73.92857142857143L133.33333333333331,71.78571428571429L137.77777777777777,48.21428571428571L142.22222222222223,77.14285714285714L146.66666666666666,59.999999999999986L151.11111111111111,51.42857142857141L155.55555555555557,52.500000000000014L160,50.35714285714285L164.44444444444443,63.21428571428572L168.88888888888889,54.642857142857146L173.33333333333334,39.64285714285714L177.77777777777777,29.999999999999993L182.22222222222223,54.642857142857146L186.66666666666666,55.714285714285715L191.11111111111111,82.5L195.55555555555554,110.35714285714286L200,58.928571428571416L204.44444444444443,81.42857142857144L208.8888888888889,86.78571428571428L213.33333333333334,73.92857142857143L217.77777777777777,112.5L222.22222222222223,105L226.66666666666666,105L231.1111111111111,109.28571428571429L235.55555555555557,147.85714285714286L240,100.71428571428572L244.44444444444446,167.14285714285714L248.88888888888889,148.92857142857144L253.33333333333331,129.64285714285714L257.77777777777777,168.21428571428572L262.22222222222223,171.42857142857142L266.66666666666663,171.42857142857142L271.11111111111114,167.14285714285714L275.55555555555554,190.7142857142857L280,172.5L284.44444444444446,196.07142857142858L288.88888888888886,199.2857142857143L293.3333333333333,213.2142857142857L297.77777777777777,195L302.22222222222223,189.64285714285714L306.6666666666667,221.7857142857143L311.11111111111114,216.42857142857142L315.55555555555554,203.57142857142858L320,225L324.44444444444446,247.5L328.88888888888886,240L333.33333333333337,241.07142857142858L337.77777777777777,237.85714285714283L342.22222222222223,241.07142857142858L346.6666666666667,256.07142857142856L351.1111111111111,251.78571428571428L355.55555555555554,265.7142857142857L360,258.2142857142857L364.44444444444446,267.8571428571429L368.8888888888889,275.35714285714283L373.3333333333333,262.5L377.77777777777777,264.6428571428571L382.22222222222223,264.6428571428571L386.6666666666667,274.2857142857143L391.1111111111111,263.57142857142856L395.55555555555554,279.64285714285717L400,282.85714285714283L404.44444444444446,279.64285714285717L408.88888888888886,283.92857142857144L413.33333333333337,285L417.7777777777778,283.92857142857144L422.22222222222223,277.5L426.6666666666667,290.35714285714283L431.1111111111111,281.7857142857143L435.55555555555554,290.35714285714283L440.00000000000006,294.6428571428571L444.44444444444446,281.7857142857143L448.8888888888889,293.57142857142856L453.3333333333333,295.7142857142857L457.77777777777777,292.5L462.2222222222222,286.07142857142856L466.6666666666667,289.2857142857143L471.11111111111114,293.57142857142856L475.55555555555554,292.5L480,295.7142857142857L484.4444444444444,294.6428571428571L488.8888888888889,292.5L493.33333333333337,294.6428571428571L497.77777777777777,297.8571428571429L502.22222222222223,295.7142857142857L506.66666666666663,296.7857142857143L511.1111111111111,297.8571428571429L515.5555555555555,296.7857142857143L520,293.57142857142856L524.4444444444445,297.8571428571429L528.8888888888889,292.5L533.3333333333333,297.8571428571429L537.7777777777778,296.7857142857143L546.6666666666666,296.7857142857143L564.4444444444445,298.92857142857144L577.7777777777777,298.92857142857144L586.6666666666666,298.92857142857144L608.8888888888889,298.92857142857144L613.3333333333334,298.92857142857144L684.4444444444445,298.92857142857144" style="fill: none; stroke: #eeca3b; stroke-width: 2;"></path></g></g><path class="foreground" d="" style="display: none; fill: none;"></path></g><g transform="translate(0,0)"><path class="background" d="M0,0h800v300h-800Z" style="fill: none;"></path><g><g class="mark-line role-mark marks"><path d="M17.77777777777778,297.8571428571429L26.666666666666668,297.8571428571429L31.11111111111111,283.92857142857144L35.55555555555556,278.57142857142856L40,289.2857142857143L44.44444444444444,282.85714285714283L48.888888888888886,292.5L53.333333333333336,277.5L57.77777777777777,267.8571428571429L62.22222222222222,263.57142857142856L66.66666666666666,242.14285714285714L71.11111111111111,229.28571428571428L75.55555555555556,212.1428571428571L80,215.35714285714286L84.44444444444444,147.85714285714286L88.88888888888889,103.92857142857143L93.33333333333333,107.14285714285712L97.77777777777777,110.35714285714286L102.22222222222221,53.571428571428584L106.66666666666667,79.28571428571428L111.11111111111111,68.57142857142856L115.55555555555554,79.28571428571428L120,38.57142857142857L124.44444444444444,41.78571428571427L128.88888888888889,93.21428571428572L133.33333333333331,77.14285714285714L137.77777777777777,78.21428571428571L142.22222222222223,62.14285714285715L146.66666666666666,78.21428571428571L151.11111111111111,75L155.55555555555557,86.78571428571428L160,108.21428571428572L164.44444444444443,110.35714285714286L168.88888888888889,68.57142857142856L173.33333333333334,70.71428571428572L177.77777777777777,98.57142857142858L182.22222222222223,100.71428571428572L186.66666666666666,133.92857142857142L191.11111111111111,141.42857142857142L195.55555555555554,121.07142857142857L200,117.85714285714288L204.44444444444443,142.5L208.8888888888889,143.57142857142856L213.33333333333334,112.5L217.77777777777777,162.8571428571429L222.22222222222223,192.85714285714283L226.66666666666666,186.42857142857144L231.1111111111111,182.14285714285717L235.55555555555557,199.2857142857143L240,188.57142857142856L244.44444444444446,199.2857142857143L248.88888888888889,220.71428571428572L253.33333333333331,185.35714285714286L257.77777777777777,229.28571428571428L262.22222222222223,246.42857142857142L266.66666666666663,228.2142857142857L271.11111111111114,236.78571428571428L275.55555555555554,237.85714285714283L280,236.78571428571428L284.44444444444446,250.71428571428572L288.88888888888886,249.64285714285717L293.3333333333333,252.85714285714286L297.77777777777777,248.57142857142856L302.22222222222223,245.35714285714286L306.6666666666667,258.2142857142857L311.11111111111114,270L315.55555555555554,251.78571428571428L320,266.7857142857143L324.44444444444446,287.14285714285717L328.88888888888886,288.2142857142857L333.33333333333337,275.35714285714283L337.77777777777777,271.07142857142856L342.22222222222223,281.7857142857143L346.6666666666667,280.7142857142857L351.1111111111111,288.2142857142857L355.55555555555554,285L360,290.35714285714283L364.44444444444446,292.5L368.8888888888889,293.57142857142856L373.3333333333333,288.2142857142857L377.77777777777777,288.2142857142857L382.22222222222223,286.07142857142856L386.6666666666667,296.7857142857143L391.1111111111111,297.8571428571429L395.55555555555554,294.6428571428571L400,297.8571428571429L404.44444444444446,297.8571428571429L408.88888888888886,294.6428571428571L413.33333333333337,291.42857142857144L417.7777777777778,298.92857142857144L422.22222222222223,296.7857142857143L426.6666666666667,298.92857142857144L435.55555555555554,297.8571428571429L440.00000000000006,298.92857142857144L444.44444444444446,297.8571428571429L448.8888888888889,297.8571428571429L457.77777777777777,298.92857142857144L462.2222222222222,296.7857142857143L466.6666666666667,298.92857142857144L471.11111111111114,298.92857142857144L475.55555555555554,298.92857142857144L480,297.8571428571429L484.4444444444444,298.92857142857144L493.33333333333337,297.8571428571429L497.77777777777777,298.92857142857144L502.22222222222223,298.92857142857144L506.66666666666663,298.92857142857144L520,296.7857142857143L546.6666666666666,298.92857142857144" style="fill: none; stroke: #b279a2; stroke-width: 2;"></path></g></g><path class="foreground" d="" style="display: none; fill: none;"></path></g><g transform="translate(0,0)"><path class="background" d="M0,0h800v300h-800Z" style="fill: none;"></path><g><g class="mark-line role-mark marks"><path d="M22.22222222222222,298.92857142857144L26.666666666666668,296.7857142857143L31.11111111111111,282.85714285714283L35.55555555555556,277.5L40,281.7857142857143L44.44444444444444,282.85714285714283L48.888888888888886,291.42857142857144L53.333333333333336,274.2857142857143L57.77777777777777,274.2857142857143L62.22222222222222,257.14285714285717L66.66666666666666,248.57142857142856L71.11111111111111,234.64285714285714L75.55555555555556,217.5L80,191.78571428571428L84.44444444444444,155.35714285714283L88.88888888888889,136.07142857142858L93.33333333333333,108.21428571428572L97.77777777777777,105L102.22222222222221,59.999999999999986L106.66666666666667,109.28571428571429L111.11111111111111,84.64285714285714L115.55555555555554,56.785714285714285L120,54.642857142857146L124.44444444444444,36.42857142857143L128.88888888888889,87.85714285714285L133.33333333333331,64.28571428571429L137.77777777777777,70.71428571428572L142.22222222222223,58.928571428571416L146.66666666666666,73.92857142857143L151.11111111111111,51.42857142857141L155.55555555555557,39.64285714285714L160,96.42857142857142L164.44444444444443,79.28571428571428L168.88888888888889,53.571428571428584L173.33333333333334,55.714285714285715L177.77777777777777,63.21428571428572L182.22222222222223,66.42857142857143L186.66666666666666,103.92857142857143L191.11111111111111,106.07142857142856L195.55555555555554,106.07142857142856L200,75L204.44444444444443,106.07142857142856L208.8888888888889,118.92857142857144L213.33333333333334,98.57142857142858L217.77777777777777,127.50000000000001L222.22222222222223,158.57142857142858L226.66666666666666,163.92857142857144L231.1111111111111,147.85714285714286L235.55555555555557,181.07142857142858L240,172.5L244.44444444444446,188.57142857142856L248.88888888888889,188.57142857142856L253.33333333333331,167.14285714285714L257.77777777777777,211.07142857142856L262.22222222222223,223.92857142857144L266.66666666666663,212.1428571428571L271.11111111111114,222.85714285714286L275.55555555555554,231.42857142857144L280,220.71428571428572L284.44444444444446,218.57142857142858L288.88888888888886,236.78571428571428L293.3333333333333,226.07142857142856L297.77777777777777,229.28571428571428L302.22222222222223,243.21428571428572L306.6666666666667,246.42857142857142L311.11111111111114,256.07142857142856L315.55555555555554,249.64285714285717L320,255L324.44444444444446,274.2857142857143L328.88888888888886,273.2142857142857L333.33333333333337,266.7857142857143L337.77777777777777,268.92857142857144L342.22222222222223,271.07142857142856L346.6666666666667,279.64285714285717L351.1111111111111,281.7857142857143L355.55555555555554,281.7857142857143L360,288.2142857142857L364.44444444444446,288.2142857142857L368.8888888888889,290.35714285714283L373.3333333333333,288.2142857142857L377.77777777777777,282.85714285714283L382.22222222222223,282.85714285714283L386.6666666666667,295.7142857142857L391.1111111111111,290.35714285714283L395.55555555555554,290.35714285714283L400,296.7857142857143L404.44444444444446,297.8571428571429L408.88888888888886,293.57142857142856L413.33333333333337,288.2142857142857L417.7777777777778,295.7142857142857L422.22222222222223,290.35714285714283L426.6666666666667,289.2857142857143L431.1111111111111,297.8571428571429L435.55555555555554,296.7857142857143L440.00000000000006,298.92857142857144L444.44444444444446,296.7857142857143L448.8888888888889,296.7857142857143L462.2222222222222,297.8571428571429L466.6666666666667,297.8571428571429L471.11111111111114,298.92857142857144L475.55555555555554,293.57142857142856L480,296.7857142857143L484.4444444444444,298.92857142857144L493.33333333333337,297.8571428571429L497.77777777777777,298.92857142857144L502.22222222222223,298.92857142857144L506.66666666666663,298.92857142857144L520,296.7857142857143L524.4444444444445,298.92857142857144L546.6666666666666,298.92857142857144L551.1111111111111,298.92857142857144L555.5555555555555,298.92857142857144" style="fill: none; stroke: #ff9da6; stroke-width: 2;"></path></g></g><path class="foreground" d="" style="display: none; fill: none;"></path></g><g transform="translate(0,0)"><path class="background" d="M0,0h800v300h-800Z" style="fill: none;"></path><g><g class="mark-line role-mark marks"><path d="M8.88888888888889,292.5L22.22222222222222,298.92857142857144L26.666666666666668,296.7857142857143L31.11111111111111,288.2142857142857L35.55555555555556,279.64285714285717L40,290.35714285714283L44.44444444444444,291.42857142857144L48.888888888888886,287.14285714285717L53.333333333333336,279.64285714285717L57.77777777777777,270L62.22222222222222,275.35714285714283L66.66666666666666,244.28571428571428L71.11111111111111,247.5L75.55555555555556,235.71428571428572L80,212.1428571428571L84.44444444444444,176.78571428571428L88.88888888888889,140.35714285714286L93.33333333333333,157.5L97.77777777777777,123.21428571428571L102.22222222222221,98.57142857142858L106.66666666666667,138.21428571428572L111.11111111111111,107.14285714285712L115.55555555555554,92.14285714285715L120,64.28571428571429L124.44444444444444,75L128.88888888888889,100.71428571428572L133.33333333333331,102.85714285714286L137.77777777777777,95.35714285714285L142.22222222222223,103.92857142857143L146.66666666666666,111.42857142857143L151.11111111111111,85.71428571428571L155.55555555555557,103.92857142857143L160,117.85714285714288L164.44444444444443,123.21428571428571L168.88888888888889,96.42857142857142L173.33333333333334,81.42857142857144L177.77777777777777,105L182.22222222222223,97.49999999999999L186.66666666666666,111.42857142857143L191.11111111111111,139.28571428571428L195.55555555555554,122.14285714285714L200,96.42857142857142L204.44444444444443,103.92857142857143L208.8888888888889,133.92857142857142L213.33333333333334,116.78571428571428L217.77777777777777,150L222.22222222222223,177.85714285714286L226.66666666666666,168.21428571428572L231.1111111111111,152.14285714285714L235.55555555555557,182.14285714285717L240,191.78571428571428L244.44444444444446,198.21428571428572L248.88888888888889,190.7142857142857L253.33333333333331,159.64285714285714L257.77777777777777,217.5L262.22222222222223,215.35714285714286L266.66666666666663,213.2142857142857L271.11111111111114,218.57142857142858L275.55555555555554,231.42857142857144L280,213.2142857142857L284.44444444444446,222.85714285714286L288.88888888888886,238.92857142857144L293.3333333333333,227.14285714285714L297.77777777777777,245.35714285714286L302.22222222222223,234.64285714285714L306.6666666666667,237.85714285714283L311.11111111111114,255L315.55555555555554,245.35714285714286L320,248.57142857142856L324.44444444444446,272.14285714285717L328.88888888888886,271.07142857142856L333.33333333333337,265.7142857142857L337.77777777777777,262.5L342.22222222222223,271.07142857142856L346.6666666666667,277.5L351.1111111111111,278.57142857142856L355.55555555555554,282.85714285714283L360,281.7857142857143L364.44444444444446,281.7857142857143L368.8888888888889,288.2142857142857L373.3333333333333,288.2142857142857L377.77777777777777,282.85714285714283L382.22222222222223,279.64285714285717L386.6666666666667,294.6428571428571L391.1111111111111,289.2857142857143L395.55555555555554,289.2857142857143L400,294.6428571428571L404.44444444444446,296.7857142857143L408.88888888888886,291.42857142857144L413.33333333333337,279.64285714285717L417.7777777777778,294.6428571428571L422.22222222222223,291.42857142857144L426.6666666666667,289.2857142857143L431.1111111111111,297.8571428571429L435.55555555555554,296.7857142857143L440.00000000000006,298.92857142857144L444.44444444444446,297.8571428571429L448.8888888888889,297.8571428571429L453.3333333333333,298.92857142857144L462.2222222222222,296.7857142857143L466.6666666666667,296.7857142857143L471.11111111111114,298.92857142857144L475.55555555555554,296.7857142857143L480,297.8571428571429L484.4444444444444,298.92857142857144L493.33333333333337,297.8571428571429L497.77777777777777,298.92857142857144L502.22222222222223,298.92857142857144L506.66666666666663,298.92857142857144L511.1111111111111,297.8571428571429L520,296.7857142857143L524.4444444444445,298.92857142857144L546.6666666666666,298.92857142857144" style="fill: none; stroke: #9d755d; stroke-width: 2;"></path></g></g><path class="foreground" d="" style="display: none; fill: none;"></path></g></g><g class="mark-group role-legend"><g transform="translate(818,0)"><path class="background" d="M0,0h62v131h-62Z" style="pointer-events: none; fill: none;"></path><g><g class="mark-group role-legend-entry"><g transform="translate(0,16)"><path class="background" d="M0,0h0v0h0Z" style="pointer-events: none; fill: none;"></path><g><g class="mark-group role-scope"><g transform="translate(0,0)"><path class="background" d="M0,0h61.576171875v11h-61.576171875Z" style="pointer-events: none; fill: none; opacity: 1;"></path><g><g class="mark-symbol role-legend-symbol" style="pointer-events: none;"><path transform="translate(6,6)" d="M-5,0L5,0" style="fill: none; stroke: #4c78a8; stroke-width: 1.5; opacity: 1;"></path></g><g class="mark-text role-legend-label" style="pointer-events: none;"><text text-anchor="start" transform="translate(16,9)" style="font-family: sans-serif; font-size: 10px; fill: #000; opacity: 1;">BP_30C</text></g></g><path class="foreground" d="" style="pointer-events: none; display: none; fill: none;"></path></g><g transform="translate(0,13)"><path class="background" d="M0,0h61.576171875v11h-61.576171875Z" style="pointer-events: none; fill: none; opacity: 1;"></path><g><g class="mark-symbol role-legend-symbol" style="pointer-events: none;"><path transform="translate(6,6)" d="M-5,0L5,0" style="fill: none; stroke: #f58518; stroke-width: 1.5; opacity: 1;"></path></g><g class="mark-text role-legend-label" style="pointer-events: none;"><text text-anchor="start" transform="translate(16,9)" style="font-family: sans-serif; font-size: 10px; fill: #000; opacity: 1;">BP_45C</text></g></g><path class="foreground" d="" style="pointer-events: none; display: none; fill: none;"></path></g><g transform="translate(0,26)"><path class="background" d="M0,0h61.576171875v11h-61.576171875Z" style="pointer-events: none; fill: none; opacity: 1;"></path><g><g class="mark-symbol role-legend-symbol" style="pointer-events: none;"><path transform="translate(6,6)" d="M-5,0L5,0" style="fill: none; stroke: #e45756; stroke-width: 1.5; opacity: 1;"></path></g><g class="mark-text role-legend-label" style="pointer-events: none;"><text text-anchor="start" transform="translate(16,9)" style="font-family: sans-serif; font-size: 10px; fill: #000; opacity: 1;">BP_60C</text></g></g><path class="foreground" d="" style="pointer-events: none; display: none; fill: none;"></path></g><g transform="translate(0,39)"><path class="background" d="M0,0h61.576171875v11h-61.576171875Z" style="pointer-events: none; fill: none; opacity: 1;"></path><g><g class="mark-symbol role-legend-symbol" style="pointer-events: none;"><path transform="translate(6,6)" d="M-5,0L5,0" style="fill: none; stroke: #72b7b2; stroke-width: 1.5; opacity: 1;"></path></g><g class="mark-text role-legend-label" style="pointer-events: none;"><text text-anchor="start" transform="translate(16,9)" style="font-family: sans-serif; font-size: 10px; fill: #000; opacity: 1;">C18_30C</text></g></g><path class="foreground" d="" style="pointer-events: none; display: none; fill: none;"></path></g><g transform="translate(0,52)"><path class="background" d="M0,0h61.576171875v11h-61.576171875Z" style="pointer-events: none; fill: none; opacity: 1;"></path><g><g class="mark-symbol role-legend-symbol" style="pointer-events: none;"><path transform="translate(6,6)" d="M-5,0L5,0" style="fill: none; stroke: #54a24b; stroke-width: 1.5; opacity: 1;"></path></g><g class="mark-text role-legend-label" style="pointer-events: none;"><text text-anchor="start" transform="translate(16,9)" style="font-family: sans-serif; font-size: 10px; fill: #000; opacity: 1;">C18_45C</text></g></g><path class="foreground" d="" style="pointer-events: none; display: none; fill: none;"></path></g><g transform="translate(0,65)"><path class="background" d="M0,0h61.576171875v11h-61.576171875Z" style="pointer-events: none; fill: none; opacity: 1;"></path><g><g class="mark-symbol role-legend-symbol" style="pointer-events: none;"><path transform="translate(6,6)" d="M-5,0L5,0" style="fill: none; stroke: #eeca3b; stroke-width: 1.5; opacity: 1;"></path></g><g class="mark-text role-legend-label" style="pointer-events: none;"><text text-anchor="start" transform="translate(16,9)" style="font-family: sans-serif; font-size: 10px; fill: #000; opacity: 1;">C18_60C</text></g></g><path class="foreground" d="" style="pointer-events: none; display: none; fill: none;"></path></g><g transform="translate(0,78)"><path class="background" d="M0,0h61.576171875v11h-61.576171875Z" style="pointer-events: none; fill: none; opacity: 1;"></path><g><g class="mark-symbol role-legend-symbol" style="pointer-events: none;"><path transform="translate(6,6)" d="M-5,0L5,0" style="fill: none; stroke: #b279a2; stroke-width: 1.5; opacity: 1;"></path></g><g class="mark-text role-legend-label" style="pointer-events: none;"><text text-anchor="start" transform="translate(16,9)" style="font-family: sans-serif; font-size: 10px; fill: #000; opacity: 1;">PGC_30C</text></g></g><path class="foreground" d="" style="pointer-events: none; display: none; fill: none;"></path></g><g transform="translate(0,91)"><path class="background" d="M0,0h61.576171875v11h-61.576171875Z" style="pointer-events: none; fill: none; opacity: 1;"></path><g><g class="mark-symbol role-legend-symbol" style="pointer-events: none;"><path transform="translate(6,6)" d="M-5,0L5,0" style="fill: none; stroke: #ff9da6; stroke-width: 1.5; opacity: 1;"></path></g><g class="mark-text role-legend-label" style="pointer-events: none;"><text text-anchor="start" transform="translate(16,9)" style="font-family: sans-serif; font-size: 10px; fill: #000; opacity: 1;">PGC_45C</text></g></g><path class="foreground" d="" style="pointer-events: none; display: none; fill: none;"></path></g><g transform="translate(0,104)"><path class="background" d="M0,0h61.576171875v11h-61.576171875Z" style="pointer-events: none; fill: none; opacity: 1;"></path><g><g class="mark-symbol role-legend-symbol" style="pointer-events: none;"><path transform="translate(6,6)" d="M-5,0L5,0" style="fill: none; stroke: #9d755d; stroke-width: 1.5; opacity: 1;"></path></g><g class="mark-text role-legend-label" style="pointer-events: none;"><text text-anchor="start" transform="translate(16,9)" style="font-family: sans-serif; font-size: 10px; fill: #000; opacity: 1;">PGC_60C</text></g></g><path class="foreground" d="" style="pointer-events: none; display: none; fill: none;"></path></g></g></g><path class="foreground" d="" style="pointer-events: none; display: none; fill: none;"></path></g></g><g class="mark-text role-legend-title" style="pointer-events: none;"><text text-anchor="start" transform="translate(0,9)" style="font-family: sans-serif; font-size: 11px; font-weight: bold; fill: #000; opacity: 1;">Sample</text></g></g><path class="foreground" d="" style="pointer-events: none; display: none; fill: none;"></path></g></g></g><path class="foreground" d="" style="display: none; fill: none;"></path></g></g></g></svg>