<?xml version="1.0" encoding="utf-8" standalone="no"?>
<!DOCTYPE svg PUBLIC "-//W3C//DTD SVG 1.1//EN"
  "http://www.w3.org/Graphics/SVG/1.1/DTD/svg11.dtd">
<!-- Created with matplotlib (https://matplotlib.org/) -->
<svg height="360pt" version="1.1" viewBox="0 0 1440 360" width="1440pt" xmlns="http://www.w3.org/2000/svg" xmlns:xlink="http://www.w3.org/1999/xlink">
 <defs>
  <style type="text/css">
*{stroke-linecap:butt;stroke-linejoin:round;}
  </style>
 </defs>
 <g id="figure_1">
  <g id="patch_1">
   <path d="M 0 360 
L 1440 360 
L 1440 0 
L 0 0 
z
" style="fill:#ffffff;"/>
  </g>
  <g id="axes_1">
   <g id="patch_2">
    <path d="M 180 315 
L 578.571429 315 
L 578.571429 43.2 
L 180 43.2 
z
" style="fill:#ffffff;"/>
   </g>
   <g id="patch_3">
    <path clip-path="url(#pd76ad57df6)" d="M 180 302.645455 
L 329.125364 302.645455 
L 329.125364 289.289189 
L 180 289.289189 
z
" style="fill:#1f77b4;"/>
   </g>
   <g id="patch_4">
    <path clip-path="url(#pd76ad57df6)" d="M 180 285.950123 
L 342.682216 285.950123 
L 342.682216 272.593857 
L 180 272.593857 
z
" style="fill:#1f77b4;"/>
   </g>
   <g id="patch_5">
    <path clip-path="url(#pd76ad57df6)" d="M 180 269.254791 
L 356.239067 269.254791 
L 356.239067 255.898526 
L 180 255.898526 
z
" style="fill:#1f77b4;"/>
   </g>
   <g id="patch_6">
    <path clip-path="url(#pd76ad57df6)" d="M 180 252.559459 
L 356.239067 252.559459 
L 356.239067 239.203194 
L 180 239.203194 
z
" style="fill:#1f77b4;"/>
   </g>
   <g id="patch_7">
    <path clip-path="url(#pd76ad57df6)" d="M 180 235.864128 
L 383.35277 235.864128 
L 383.35277 222.507862 
L 180 222.507862 
z
" style="fill:#1f77b4;"/>
   </g>
   <g id="patch_8">
    <path clip-path="url(#pd76ad57df6)" d="M 180 219.168796 
L 383.35277 219.168796 
L 383.35277 205.812531 
L 180 205.812531 
z
" style="fill:#1f77b4;"/>
   </g>
   <g id="patch_9">
    <path clip-path="url(#pd76ad57df6)" d="M 180 202.473464 
L 424.023324 202.473464 
L 424.023324 189.117199 
L 180 189.117199 
z
" style="fill:#1f77b4;"/>
   </g>
   <g id="patch_10">
    <path clip-path="url(#pd76ad57df6)" d="M 180 185.778133 
L 437.580175 185.778133 
L 437.580175 172.421867 
L 180 172.421867 
z
" style="fill:#1f77b4;"/>
   </g>
   <g id="patch_11">
    <path clip-path="url(#pd76ad57df6)" d="M 180 169.082801 
L 451.137026 169.082801 
L 451.137026 155.726536 
L 180 155.726536 
z
" style="fill:#1f77b4;"/>
   </g>
   <g id="patch_12">
    <path clip-path="url(#pd76ad57df6)" d="M 180 152.387469 
L 464.693878 152.387469 
L 464.693878 139.031204 
L 180 139.031204 
z
" style="fill:#1f77b4;"/>
   </g>
   <g id="patch_13">
    <path clip-path="url(#pd76ad57df6)" d="M 180 135.692138 
L 491.80758 135.692138 
L 491.80758 122.335872 
L 180 122.335872 
z
" style="fill:#1f77b4;"/>
   </g>
   <g id="patch_14">
    <path clip-path="url(#pd76ad57df6)" d="M 180 118.996806 
L 491.80758 118.996806 
L 491.80758 105.640541 
L 180 105.640541 
z
" style="fill:#1f77b4;"/>
   </g>
   <g id="patch_15">
    <path clip-path="url(#pd76ad57df6)" d="M 180 102.301474 
L 518.921283 102.301474 
L 518.921283 88.945209 
L 180 88.945209 
z
" style="fill:#1f77b4;"/>
   </g>
   <g id="patch_16">
    <path clip-path="url(#pd76ad57df6)" d="M 180 85.606143 
L 546.034985 85.606143 
L 546.034985 72.249877 
L 180 72.249877 
z
" style="fill:#1f77b4;"/>
   </g>
   <g id="patch_17">
    <path clip-path="url(#pd76ad57df6)" d="M 180 68.910811 
L 559.591837 68.910811 
L 559.591837 55.554545 
L 180 55.554545 
z
" style="fill:#1f77b4;"/>
   </g>
   <g id="matplotlib.axis_1">
    <g id="xtick_1">
     <g id="line2d_1">
      <defs>
       <path d="M 0 0 
L 0 3.5 
" id="me9b83c616a" style="stroke:#000000;stroke-width:0.8;"/>
      </defs>
      <g>
       <use style="stroke:#000000;stroke-width:0.8;" x="180" xlink:href="#me9b83c616a" y="315"/>
      </g>
     </g>
     <g id="text_1">
      <!-- 0 -->
      <defs>
       <path d="M 31.78125 66.40625 
Q 24.171875 66.40625 20.328125 58.90625 
Q 16.5 51.421875 16.5 36.375 
Q 16.5 21.390625 20.328125 13.890625 
Q 24.171875 6.390625 31.78125 6.390625 
Q 39.453125 6.390625 43.28125 13.890625 
Q 47.125 21.390625 47.125 36.375 
Q 47.125 51.421875 43.28125 58.90625 
Q 39.453125 66.40625 31.78125 66.40625 
z
M 31.78125 74.21875 
Q 44.046875 74.21875 50.515625 64.515625 
Q 56.984375 54.828125 56.984375 36.375 
Q 56.984375 17.96875 50.515625 8.265625 
Q 44.046875 -1.421875 31.78125 -1.421875 
Q 19.53125 -1.421875 13.0625 8.265625 
Q 6.59375 17.96875 6.59375 36.375 
Q 6.59375 54.828125 13.0625 64.515625 
Q 19.53125 74.21875 31.78125 74.21875 
z
" id="DejaVuSans-48"/>
      </defs>
      <g transform="translate(176.81875 329.598437)scale(0.1 -0.1)">
       <use xlink:href="#DejaVuSans-48"/>
      </g>
     </g>
    </g>
    <g id="xtick_2">
     <g id="line2d_2">
      <g>
       <use style="stroke:#000000;stroke-width:0.8;" x="247.784257" xlink:href="#me9b83c616a" y="315"/>
      </g>
     </g>
     <g id="text_2">
      <!-- 5 -->
      <defs>
       <path d="M 10.796875 72.90625 
L 49.515625 72.90625 
L 49.515625 64.59375 
L 19.828125 64.59375 
L 19.828125 46.734375 
Q 21.96875 47.46875 24.109375 47.828125 
Q 26.265625 48.1875 28.421875 48.1875 
Q 40.625 48.1875 47.75 41.5 
Q 54.890625 34.8125 54.890625 23.390625 
Q 54.890625 11.625 47.5625 5.09375 
Q 40.234375 -1.421875 26.90625 -1.421875 
Q 22.3125 -1.421875 17.546875 -0.640625 
Q 12.796875 0.140625 7.71875 1.703125 
L 7.71875 11.625 
Q 12.109375 9.234375 16.796875 8.0625 
Q 21.484375 6.890625 26.703125 6.890625 
Q 35.15625 6.890625 40.078125 11.328125 
Q 45.015625 15.765625 45.015625 23.390625 
Q 45.015625 31 40.078125 35.4375 
Q 35.15625 39.890625 26.703125 39.890625 
Q 22.75 39.890625 18.8125 39.015625 
Q 14.890625 38.140625 10.796875 36.28125 
z
" id="DejaVuSans-53"/>
      </defs>
      <g transform="translate(244.603007 329.598437)scale(0.1 -0.1)">
       <use xlink:href="#DejaVuSans-53"/>
      </g>
     </g>
    </g>
    <g id="xtick_3">
     <g id="line2d_3">
      <g>
       <use style="stroke:#000000;stroke-width:0.8;" x="315.568513" xlink:href="#me9b83c616a" y="315"/>
      </g>
     </g>
     <g id="text_3">
      <!-- 10 -->
      <defs>
       <path d="M 12.40625 8.296875 
L 28.515625 8.296875 
L 28.515625 63.921875 
L 10.984375 60.40625 
L 10.984375 69.390625 
L 28.421875 72.90625 
L 38.28125 72.90625 
L 38.28125 8.296875 
L 54.390625 8.296875 
L 54.390625 0 
L 12.40625 0 
z
" id="DejaVuSans-49"/>
      </defs>
      <g transform="translate(309.206013 329.598437)scale(0.1 -0.1)">
       <use xlink:href="#DejaVuSans-49"/>
       <use x="63.623047" xlink:href="#DejaVuSans-48"/>
      </g>
     </g>
    </g>
    <g id="xtick_4">
     <g id="line2d_4">
      <g>
       <use style="stroke:#000000;stroke-width:0.8;" x="383.35277" xlink:href="#me9b83c616a" y="315"/>
      </g>
     </g>
     <g id="text_4">
      <!-- 15 -->
      <g transform="translate(376.99027 329.598437)scale(0.1 -0.1)">
       <use xlink:href="#DejaVuSans-49"/>
       <use x="63.623047" xlink:href="#DejaVuSans-53"/>
      </g>
     </g>
    </g>
    <g id="xtick_5">
     <g id="line2d_5">
      <g>
       <use style="stroke:#000000;stroke-width:0.8;" x="451.137026" xlink:href="#me9b83c616a" y="315"/>
      </g>
     </g>
     <g id="text_5">
      <!-- 20 -->
      <defs>
       <path d="M 19.1875 8.296875 
L 53.609375 8.296875 
L 53.609375 0 
L 7.328125 0 
L 7.328125 8.296875 
Q 12.9375 14.109375 22.625 23.890625 
Q 32.328125 33.6875 34.8125 36.53125 
Q 39.546875 41.84375 41.421875 45.53125 
Q 43.3125 49.21875 43.3125 52.78125 
Q 43.3125 58.59375 39.234375 62.25 
Q 35.15625 65.921875 28.609375 65.921875 
Q 23.96875 65.921875 18.8125 64.3125 
Q 13.671875 62.703125 7.8125 59.421875 
L 7.8125 69.390625 
Q 13.765625 71.78125 18.9375 73 
Q 24.125 74.21875 28.421875 74.21875 
Q 39.75 74.21875 46.484375 68.546875 
Q 53.21875 62.890625 53.21875 53.421875 
Q 53.21875 48.921875 51.53125 44.890625 
Q 49.859375 40.875 45.40625 35.40625 
Q 44.1875 33.984375 37.640625 27.21875 
Q 31.109375 20.453125 19.1875 8.296875 
z
" id="DejaVuSans-50"/>
      </defs>
      <g transform="translate(444.774526 329.598437)scale(0.1 -0.1)">
       <use xlink:href="#DejaVuSans-50"/>
       <use x="63.623047" xlink:href="#DejaVuSans-48"/>
      </g>
     </g>
    </g>
    <g id="xtick_6">
     <g id="line2d_6">
      <g>
       <use style="stroke:#000000;stroke-width:0.8;" x="518.921283" xlink:href="#me9b83c616a" y="315"/>
      </g>
     </g>
     <g id="text_6">
      <!-- 25 -->
      <g transform="translate(512.558783 329.598437)scale(0.1 -0.1)">
       <use xlink:href="#DejaVuSans-50"/>
       <use x="63.623047" xlink:href="#DejaVuSans-53"/>
      </g>
     </g>
    </g>
   </g>
   <g id="matplotlib.axis_2">
    <g id="ytick_1">
     <g id="line2d_7">
      <defs>
       <path d="M 0 0 
L -3.5 0 
" id="m7fe84d1a7b" style="stroke:#000000;stroke-width:0.8;"/>
      </defs>
      <g>
       <use style="stroke:#000000;stroke-width:0.8;" x="180" xlink:href="#m7fe84d1a7b" y="295.967322"/>
      </g>
     </g>
     <g id="text_7">
      <!-- golgi apparatus -->
      <defs>
       <path d="M 45.40625 27.984375 
Q 45.40625 37.75 41.375 43.109375 
Q 37.359375 48.484375 30.078125 48.484375 
Q 22.859375 48.484375 18.828125 43.109375 
Q 14.796875 37.75 14.796875 27.984375 
Q 14.796875 18.265625 18.828125 12.890625 
Q 22.859375 7.515625 30.078125 7.515625 
Q 37.359375 7.515625 41.375 12.890625 
Q 45.40625 18.265625 45.40625 27.984375 
z
M 54.390625 6.78125 
Q 54.390625 -7.171875 48.1875 -13.984375 
Q 42 -20.796875 29.203125 -20.796875 
Q 24.46875 -20.796875 20.265625 -20.09375 
Q 16.0625 -19.390625 12.109375 -17.921875 
L 12.109375 -9.1875 
Q 16.0625 -11.328125 19.921875 -12.34375 
Q 23.78125 -13.375 27.78125 -13.375 
Q 36.625 -13.375 41.015625 -8.765625 
Q 45.40625 -4.15625 45.40625 5.171875 
L 45.40625 9.625 
Q 42.625 4.78125 38.28125 2.390625 
Q 33.9375 0 27.875 0 
Q 17.828125 0 11.671875 7.65625 
Q 5.515625 15.328125 5.515625 27.984375 
Q 5.515625 40.671875 11.671875 48.328125 
Q 17.828125 56 27.875 56 
Q 33.9375 56 38.28125 53.609375 
Q 42.625 51.21875 45.40625 46.390625 
L 45.40625 54.6875 
L 54.390625 54.6875 
z
" id="DejaVuSans-103"/>
       <path d="M 30.609375 48.390625 
Q 23.390625 48.390625 19.1875 42.75 
Q 14.984375 37.109375 14.984375 27.296875 
Q 14.984375 17.484375 19.15625 11.84375 
Q 23.34375 6.203125 30.609375 6.203125 
Q 37.796875 6.203125 41.984375 11.859375 
Q 46.1875 17.53125 46.1875 27.296875 
Q 46.1875 37.015625 41.984375 42.703125 
Q 37.796875 48.390625 30.609375 48.390625 
z
M 30.609375 56 
Q 42.328125 56 49.015625 48.375 
Q 55.71875 40.765625 55.71875 27.296875 
Q 55.71875 13.875 49.015625 6.21875 
Q 42.328125 -1.421875 30.609375 -1.421875 
Q 18.84375 -1.421875 12.171875 6.21875 
Q 5.515625 13.875 5.515625 27.296875 
Q 5.515625 40.765625 12.171875 48.375 
Q 18.84375 56 30.609375 56 
z
" id="DejaVuSans-111"/>
       <path d="M 9.421875 75.984375 
L 18.40625 75.984375 
L 18.40625 0 
L 9.421875 0 
z
" id="DejaVuSans-108"/>
       <path d="M 9.421875 54.6875 
L 18.40625 54.6875 
L 18.40625 0 
L 9.421875 0 
z
M 9.421875 75.984375 
L 18.40625 75.984375 
L 18.40625 64.59375 
L 9.421875 64.59375 
z
" id="DejaVuSans-105"/>
       <path id="DejaVuSans-32"/>
       <path d="M 34.28125 27.484375 
Q 23.390625 27.484375 19.1875 25 
Q 14.984375 22.515625 14.984375 16.5 
Q 14.984375 11.71875 18.140625 8.90625 
Q 21.296875 6.109375 26.703125 6.109375 
Q 34.1875 6.109375 38.703125 11.40625 
Q 43.21875 16.703125 43.21875 25.484375 
L 43.21875 27.484375 
z
M 52.203125 31.203125 
L 52.203125 0 
L 43.21875 0 
L 43.21875 8.296875 
Q 40.140625 3.328125 35.546875 0.953125 
Q 30.953125 -1.421875 24.3125 -1.421875 
Q 15.921875 -1.421875 10.953125 3.296875 
Q 6 8.015625 6 15.921875 
Q 6 25.140625 12.171875 29.828125 
Q 18.359375 34.515625 30.609375 34.515625 
L 43.21875 34.515625 
L 43.21875 35.40625 
Q 43.21875 41.609375 39.140625 45 
Q 35.0625 48.390625 27.6875 48.390625 
Q 23 48.390625 18.546875 47.265625 
Q 14.109375 46.140625 10.015625 43.890625 
L 10.015625 52.203125 
Q 14.9375 54.109375 19.578125 55.046875 
Q 24.21875 56 28.609375 56 
Q 40.484375 56 46.34375 49.84375 
Q 52.203125 43.703125 52.203125 31.203125 
z
" id="DejaVuSans-97"/>
       <path d="M 18.109375 8.203125 
L 18.109375 -20.796875 
L 9.078125 -20.796875 
L 9.078125 54.6875 
L 18.109375 54.6875 
L 18.109375 46.390625 
Q 20.953125 51.265625 25.265625 53.625 
Q 29.59375 56 35.59375 56 
Q 45.5625 56 51.78125 48.09375 
Q 58.015625 40.1875 58.015625 27.296875 
Q 58.015625 14.40625 51.78125 6.484375 
Q 45.5625 -1.421875 35.59375 -1.421875 
Q 29.59375 -1.421875 25.265625 0.953125 
Q 20.953125 3.328125 18.109375 8.203125 
z
M 48.6875 27.296875 
Q 48.6875 37.203125 44.609375 42.84375 
Q 40.53125 48.484375 33.40625 48.484375 
Q 26.265625 48.484375 22.1875 42.84375 
Q 18.109375 37.203125 18.109375 27.296875 
Q 18.109375 17.390625 22.1875 11.75 
Q 26.265625 6.109375 33.40625 6.109375 
Q 40.53125 6.109375 44.609375 11.75 
Q 48.6875 17.390625 48.6875 27.296875 
z
" id="DejaVuSans-112"/>
       <path d="M 41.109375 46.296875 
Q 39.59375 47.171875 37.8125 47.578125 
Q 36.03125 48 33.890625 48 
Q 26.265625 48 22.1875 43.046875 
Q 18.109375 38.09375 18.109375 28.8125 
L 18.109375 0 
L 9.078125 0 
L 9.078125 54.6875 
L 18.109375 54.6875 
L 18.109375 46.1875 
Q 20.953125 51.171875 25.484375 53.578125 
Q 30.03125 56 36.53125 56 
Q 37.453125 56 38.578125 55.875 
Q 39.703125 55.765625 41.0625 55.515625 
z
" id="DejaVuSans-114"/>
       <path d="M 18.3125 70.21875 
L 18.3125 54.6875 
L 36.8125 54.6875 
L 36.8125 47.703125 
L 18.3125 47.703125 
L 18.3125 18.015625 
Q 18.3125 11.328125 20.140625 9.421875 
Q 21.96875 7.515625 27.59375 7.515625 
L 36.8125 7.515625 
L 36.8125 0 
L 27.59375 0 
Q 17.1875 0 13.234375 3.875 
Q 9.28125 7.765625 9.28125 18.015625 
L 9.28125 47.703125 
L 2.6875 47.703125 
L 2.6875 54.6875 
L 9.28125 54.6875 
L 9.28125 70.21875 
z
" id="DejaVuSans-116"/>
       <path d="M 8.5 21.578125 
L 8.5 54.6875 
L 17.484375 54.6875 
L 17.484375 21.921875 
Q 17.484375 14.15625 20.5 10.265625 
Q 23.53125 6.390625 29.59375 6.390625 
Q 36.859375 6.390625 41.078125 11.03125 
Q 45.3125 15.671875 45.3125 23.6875 
L 45.3125 54.6875 
L 54.296875 54.6875 
L 54.296875 0 
L 45.3125 0 
L 45.3125 8.40625 
Q 42.046875 3.421875 37.71875 1 
Q 33.40625 -1.421875 27.6875 -1.421875 
Q 18.265625 -1.421875 13.375 4.4375 
Q 8.5 10.296875 8.5 21.578125 
z
M 31.109375 56 
z
" id="DejaVuSans-117"/>
       <path d="M 44.28125 53.078125 
L 44.28125 44.578125 
Q 40.484375 46.53125 36.375 47.5 
Q 32.28125 48.484375 27.875 48.484375 
Q 21.1875 48.484375 17.84375 46.4375 
Q 14.5 44.390625 14.5 40.28125 
Q 14.5 37.15625 16.890625 35.375 
Q 19.28125 33.59375 26.515625 31.984375 
L 29.59375 31.296875 
Q 39.15625 29.25 43.1875 25.515625 
Q 47.21875 21.78125 47.21875 15.09375 
Q 47.21875 7.46875 41.1875 3.015625 
Q 35.15625 -1.421875 24.609375 -1.421875 
Q 20.21875 -1.421875 15.453125 -0.5625 
Q 10.6875 0.296875 5.421875 2 
L 5.421875 11.28125 
Q 10.40625 8.6875 15.234375 7.390625 
Q 20.0625 6.109375 24.8125 6.109375 
Q 31.15625 6.109375 34.5625 8.28125 
Q 37.984375 10.453125 37.984375 14.40625 
Q 37.984375 18.0625 35.515625 20.015625 
Q 33.0625 21.96875 24.703125 23.78125 
L 21.578125 24.515625 
Q 13.234375 26.265625 9.515625 29.90625 
Q 5.8125 33.546875 5.8125 39.890625 
Q 5.8125 47.609375 11.28125 51.796875 
Q 16.75 56 26.8125 56 
Q 31.78125 56 36.171875 55.265625 
Q 40.578125 54.546875 44.28125 53.078125 
z
" id="DejaVuSans-115"/>
      </defs>
      <g transform="translate(94.790625 299.766541)scale(0.1 -0.1)">
       <use xlink:href="#DejaVuSans-103"/>
       <use x="63.476562" xlink:href="#DejaVuSans-111"/>
       <use x="124.658203" xlink:href="#DejaVuSans-108"/>
       <use x="152.441406" xlink:href="#DejaVuSans-103"/>
       <use x="215.917969" xlink:href="#DejaVuSans-105"/>
       <use x="243.701172" xlink:href="#DejaVuSans-32"/>
       <use x="275.488281" xlink:href="#DejaVuSans-97"/>
       <use x="336.767578" xlink:href="#DejaVuSans-112"/>
       <use x="400.244141" xlink:href="#DejaVuSans-112"/>
       <use x="463.720703" xlink:href="#DejaVuSans-97"/>
       <use x="525" xlink:href="#DejaVuSans-114"/>
       <use x="566.113281" xlink:href="#DejaVuSans-97"/>
       <use x="627.392578" xlink:href="#DejaVuSans-116"/>
       <use x="666.601562" xlink:href="#DejaVuSans-117"/>
       <use x="729.980469" xlink:href="#DejaVuSans-115"/>
      </g>
     </g>
    </g>
    <g id="ytick_2">
     <g id="line2d_8">
      <g>
       <use style="stroke:#000000;stroke-width:0.8;" x="180" xlink:href="#m7fe84d1a7b" y="279.27199"/>
      </g>
     </g>
     <g id="text_8">
      <!-- single-pass type i membrane protein -->
      <defs>
       <path d="M 54.890625 33.015625 
L 54.890625 0 
L 45.90625 0 
L 45.90625 32.71875 
Q 45.90625 40.484375 42.875 44.328125 
Q 39.84375 48.1875 33.796875 48.1875 
Q 26.515625 48.1875 22.3125 43.546875 
Q 18.109375 38.921875 18.109375 30.90625 
L 18.109375 0 
L 9.078125 0 
L 9.078125 54.6875 
L 18.109375 54.6875 
L 18.109375 46.1875 
Q 21.34375 51.125 25.703125 53.5625 
Q 30.078125 56 35.796875 56 
Q 45.21875 56 50.046875 50.171875 
Q 54.890625 44.34375 54.890625 33.015625 
z
" id="DejaVuSans-110"/>
       <path d="M 56.203125 29.59375 
L 56.203125 25.203125 
L 14.890625 25.203125 
Q 15.484375 15.921875 20.484375 11.0625 
Q 25.484375 6.203125 34.421875 6.203125 
Q 39.59375 6.203125 44.453125 7.46875 
Q 49.3125 8.734375 54.109375 11.28125 
L 54.109375 2.78125 
Q 49.265625 0.734375 44.1875 -0.34375 
Q 39.109375 -1.421875 33.890625 -1.421875 
Q 20.796875 -1.421875 13.15625 6.1875 
Q 5.515625 13.8125 5.515625 26.8125 
Q 5.515625 40.234375 12.765625 48.109375 
Q 20.015625 56 32.328125 56 
Q 43.359375 56 49.78125 48.890625 
Q 56.203125 41.796875 56.203125 29.59375 
z
M 47.21875 32.234375 
Q 47.125 39.59375 43.09375 43.984375 
Q 39.0625 48.390625 32.421875 48.390625 
Q 24.90625 48.390625 20.390625 44.140625 
Q 15.875 39.890625 15.1875 32.171875 
z
" id="DejaVuSans-101"/>
       <path d="M 4.890625 31.390625 
L 31.203125 31.390625 
L 31.203125 23.390625 
L 4.890625 23.390625 
z
" id="DejaVuSans-45"/>
       <path d="M 32.171875 -5.078125 
Q 28.375 -14.84375 24.75 -17.8125 
Q 21.140625 -20.796875 15.09375 -20.796875 
L 7.90625 -20.796875 
L 7.90625 -13.28125 
L 13.1875 -13.28125 
Q 16.890625 -13.28125 18.9375 -11.515625 
Q 21 -9.765625 23.484375 -3.21875 
L 25.09375 0.875 
L 2.984375 54.6875 
L 12.5 54.6875 
L 29.59375 11.921875 
L 46.6875 54.6875 
L 56.203125 54.6875 
z
" id="DejaVuSans-121"/>
       <path d="M 52 44.1875 
Q 55.375 50.25 60.0625 53.125 
Q 64.75 56 71.09375 56 
Q 79.640625 56 84.28125 50.015625 
Q 88.921875 44.046875 88.921875 33.015625 
L 88.921875 0 
L 79.890625 0 
L 79.890625 32.71875 
Q 79.890625 40.578125 77.09375 44.375 
Q 74.3125 48.1875 68.609375 48.1875 
Q 61.625 48.1875 57.5625 43.546875 
Q 53.515625 38.921875 53.515625 30.90625 
L 53.515625 0 
L 44.484375 0 
L 44.484375 32.71875 
Q 44.484375 40.625 41.703125 44.40625 
Q 38.921875 48.1875 33.109375 48.1875 
Q 26.21875 48.1875 22.15625 43.53125 
Q 18.109375 38.875 18.109375 30.90625 
L 18.109375 0 
L 9.078125 0 
L 9.078125 54.6875 
L 18.109375 54.6875 
L 18.109375 46.1875 
Q 21.1875 51.21875 25.484375 53.609375 
Q 29.78125 56 35.6875 56 
Q 41.65625 56 45.828125 52.96875 
Q 50 49.953125 52 44.1875 
z
" id="DejaVuSans-109"/>
       <path d="M 48.6875 27.296875 
Q 48.6875 37.203125 44.609375 42.84375 
Q 40.53125 48.484375 33.40625 48.484375 
Q 26.265625 48.484375 22.1875 42.84375 
Q 18.109375 37.203125 18.109375 27.296875 
Q 18.109375 17.390625 22.1875 11.75 
Q 26.265625 6.109375 33.40625 6.109375 
Q 40.53125 6.109375 44.609375 11.75 
Q 48.6875 17.390625 48.6875 27.296875 
z
M 18.109375 46.390625 
Q 20.953125 51.265625 25.265625 53.625 
Q 29.59375 56 35.59375 56 
Q 45.5625 56 51.78125 48.09375 
Q 58.015625 40.1875 58.015625 27.296875 
Q 58.015625 14.40625 51.78125 6.484375 
Q 45.5625 -1.421875 35.59375 -1.421875 
Q 29.59375 -1.421875 25.265625 0.953125 
Q 20.953125 3.328125 18.109375 8.203125 
L 18.109375 0 
L 9.078125 0 
L 9.078125 75.984375 
L 18.109375 75.984375 
z
" id="DejaVuSans-98"/>
      </defs>
      <g transform="translate(-11.415625 283.071209)scale(0.1 -0.1)">
       <use xlink:href="#DejaVuSans-115"/>
       <use x="52.099609" xlink:href="#DejaVuSans-105"/>
       <use x="79.882812" xlink:href="#DejaVuSans-110"/>
       <use x="143.261719" xlink:href="#DejaVuSans-103"/>
       <use x="206.738281" xlink:href="#DejaVuSans-108"/>
       <use x="234.521484" xlink:href="#DejaVuSans-101"/>
       <use x="296.044922" xlink:href="#DejaVuSans-45"/>
       <use x="332.128906" xlink:href="#DejaVuSans-112"/>
       <use x="395.605469" xlink:href="#DejaVuSans-97"/>
       <use x="456.884766" xlink:href="#DejaVuSans-115"/>
       <use x="508.984375" xlink:href="#DejaVuSans-115"/>
       <use x="561.083984" xlink:href="#DejaVuSans-32"/>
       <use x="592.871094" xlink:href="#DejaVuSans-116"/>
       <use x="632.080078" xlink:href="#DejaVuSans-121"/>
       <use x="691.259766" xlink:href="#DejaVuSans-112"/>
       <use x="754.736328" xlink:href="#DejaVuSans-101"/>
       <use x="816.259766" xlink:href="#DejaVuSans-32"/>
       <use x="848.046875" xlink:href="#DejaVuSans-105"/>
       <use x="875.830078" xlink:href="#DejaVuSans-32"/>
       <use x="907.617188" xlink:href="#DejaVuSans-109"/>
       <use x="1005.029297" xlink:href="#DejaVuSans-101"/>
       <use x="1066.552734" xlink:href="#DejaVuSans-109"/>
       <use x="1163.964844" xlink:href="#DejaVuSans-98"/>
       <use x="1227.441406" xlink:href="#DejaVuSans-114"/>
       <use x="1268.554688" xlink:href="#DejaVuSans-97"/>
       <use x="1329.833984" xlink:href="#DejaVuSans-110"/>
       <use x="1393.212891" xlink:href="#DejaVuSans-101"/>
       <use x="1454.736328" xlink:href="#DejaVuSans-32"/>
       <use x="1486.523438" xlink:href="#DejaVuSans-112"/>
       <use x="1550" xlink:href="#DejaVuSans-114"/>
       <use x="1591.082031" xlink:href="#DejaVuSans-111"/>
       <use x="1652.263672" xlink:href="#DejaVuSans-116"/>
       <use x="1691.472656" xlink:href="#DejaVuSans-101"/>
       <use x="1752.996094" xlink:href="#DejaVuSans-105"/>
       <use x="1780.779297" xlink:href="#DejaVuSans-110"/>
      </g>
     </g>
    </g>
    <g id="ytick_3">
     <g id="line2d_9">
      <g>
       <use style="stroke:#000000;stroke-width:0.8;" x="180" xlink:href="#m7fe84d1a7b" y="262.576658"/>
      </g>
     </g>
     <g id="text_9">
      <!-- nucleolus -->
      <defs>
       <path d="M 48.78125 52.59375 
L 48.78125 44.1875 
Q 44.96875 46.296875 41.140625 47.34375 
Q 37.3125 48.390625 33.40625 48.390625 
Q 24.65625 48.390625 19.8125 42.84375 
Q 14.984375 37.3125 14.984375 27.296875 
Q 14.984375 17.28125 19.8125 11.734375 
Q 24.65625 6.203125 33.40625 6.203125 
Q 37.3125 6.203125 41.140625 7.25 
Q 44.96875 8.296875 48.78125 10.40625 
L 48.78125 2.09375 
Q 45.015625 0.34375 40.984375 -0.53125 
Q 36.96875 -1.421875 32.421875 -1.421875 
Q 20.0625 -1.421875 12.78125 6.34375 
Q 5.515625 14.109375 5.515625 27.296875 
Q 5.515625 40.671875 12.859375 48.328125 
Q 20.21875 56 33.015625 56 
Q 37.15625 56 41.109375 55.140625 
Q 45.0625 54.296875 48.78125 52.59375 
z
" id="DejaVuSans-99"/>
      </defs>
      <g transform="translate(125.451562 266.375877)scale(0.1 -0.1)">
       <use xlink:href="#DejaVuSans-110"/>
       <use x="63.378906" xlink:href="#DejaVuSans-117"/>
       <use x="126.757812" xlink:href="#DejaVuSans-99"/>
       <use x="181.738281" xlink:href="#DejaVuSans-108"/>
       <use x="209.521484" xlink:href="#DejaVuSans-101"/>
       <use x="271.044922" xlink:href="#DejaVuSans-111"/>
       <use x="332.226562" xlink:href="#DejaVuSans-108"/>
       <use x="360.009766" xlink:href="#DejaVuSans-117"/>
       <use x="423.388672" xlink:href="#DejaVuSans-115"/>
      </g>
     </g>
    </g>
    <g id="ytick_4">
     <g id="line2d_10">
      <g>
       <use style="stroke:#000000;stroke-width:0.8;" x="180" xlink:href="#m7fe84d1a7b" y="245.881327"/>
      </g>
     </g>
     <g id="text_10">
      <!-- cytosol -->
      <g transform="translate(137.4375 249.680546)scale(0.1 -0.1)">
       <use xlink:href="#DejaVuSans-99"/>
       <use x="54.980469" xlink:href="#DejaVuSans-121"/>
       <use x="114.160156" xlink:href="#DejaVuSans-116"/>
       <use x="153.369141" xlink:href="#DejaVuSans-111"/>
       <use x="214.550781" xlink:href="#DejaVuSans-115"/>
       <use x="266.650391" xlink:href="#DejaVuSans-111"/>
       <use x="327.832031" xlink:href="#DejaVuSans-108"/>
      </g>
     </g>
    </g>
    <g id="ytick_5">
     <g id="line2d_11">
      <g>
       <use style="stroke:#000000;stroke-width:0.8;" x="180" xlink:href="#m7fe84d1a7b" y="229.185995"/>
      </g>
     </g>
     <g id="text_11">
      <!-- cell projection -->
      <defs>
       <path d="M 9.421875 54.6875 
L 18.40625 54.6875 
L 18.40625 -0.984375 
Q 18.40625 -11.421875 14.421875 -16.109375 
Q 10.453125 -20.796875 1.609375 -20.796875 
L -1.8125 -20.796875 
L -1.8125 -13.1875 
L 0.59375 -13.1875 
Q 5.71875 -13.1875 7.5625 -10.8125 
Q 9.421875 -8.453125 9.421875 -0.984375 
z
M 9.421875 75.984375 
L 18.40625 75.984375 
L 18.40625 64.59375 
L 9.421875 64.59375 
z
" id="DejaVuSans-106"/>
      </defs>
      <g transform="translate(102.454687 232.985214)scale(0.1 -0.1)">
       <use xlink:href="#DejaVuSans-99"/>
       <use x="54.980469" xlink:href="#DejaVuSans-101"/>
       <use x="116.503906" xlink:href="#DejaVuSans-108"/>
       <use x="144.287109" xlink:href="#DejaVuSans-108"/>
       <use x="172.070312" xlink:href="#DejaVuSans-32"/>
       <use x="203.857422" xlink:href="#DejaVuSans-112"/>
       <use x="267.333984" xlink:href="#DejaVuSans-114"/>
       <use x="308.416016" xlink:href="#DejaVuSans-111"/>
       <use x="369.597656" xlink:href="#DejaVuSans-106"/>
       <use x="397.380859" xlink:href="#DejaVuSans-101"/>
       <use x="458.904297" xlink:href="#DejaVuSans-99"/>
       <use x="513.884766" xlink:href="#DejaVuSans-116"/>
       <use x="553.09375" xlink:href="#DejaVuSans-105"/>
       <use x="580.876953" xlink:href="#DejaVuSans-111"/>
       <use x="642.058594" xlink:href="#DejaVuSans-110"/>
      </g>
     </g>
    </g>
    <g id="ytick_6">
     <g id="line2d_12">
      <g>
       <use style="stroke:#000000;stroke-width:0.8;" x="180" xlink:href="#m7fe84d1a7b" y="212.490663"/>
      </g>
     </g>
     <g id="text_12">
      <!-- cytoplasmic vesicle -->
      <defs>
       <path d="M 2.984375 54.6875 
L 12.5 54.6875 
L 29.59375 8.796875 
L 46.6875 54.6875 
L 56.203125 54.6875 
L 35.6875 0 
L 23.484375 0 
z
" id="DejaVuSans-118"/>
      </defs>
      <g transform="translate(75.395312 216.289882)scale(0.1 -0.1)">
       <use xlink:href="#DejaVuSans-99"/>
       <use x="54.980469" xlink:href="#DejaVuSans-121"/>
       <use x="114.160156" xlink:href="#DejaVuSans-116"/>
       <use x="153.369141" xlink:href="#DejaVuSans-111"/>
       <use x="214.550781" xlink:href="#DejaVuSans-112"/>
       <use x="278.027344" xlink:href="#DejaVuSans-108"/>
       <use x="305.810547" xlink:href="#DejaVuSans-97"/>
       <use x="367.089844" xlink:href="#DejaVuSans-115"/>
       <use x="419.189453" xlink:href="#DejaVuSans-109"/>
       <use x="516.601562" xlink:href="#DejaVuSans-105"/>
       <use x="544.384766" xlink:href="#DejaVuSans-99"/>
       <use x="599.365234" xlink:href="#DejaVuSans-32"/>
       <use x="631.152344" xlink:href="#DejaVuSans-118"/>
       <use x="690.332031" xlink:href="#DejaVuSans-101"/>
       <use x="751.855469" xlink:href="#DejaVuSans-115"/>
       <use x="803.955078" xlink:href="#DejaVuSans-105"/>
       <use x="831.738281" xlink:href="#DejaVuSans-99"/>
       <use x="886.71875" xlink:href="#DejaVuSans-108"/>
       <use x="914.501953" xlink:href="#DejaVuSans-101"/>
      </g>
     </g>
    </g>
    <g id="ytick_7">
     <g id="line2d_13">
      <g>
       <use style="stroke:#000000;stroke-width:0.8;" x="180" xlink:href="#m7fe84d1a7b" y="195.795332"/>
      </g>
     </g>
     <g id="text_13">
      <!-- cytoplasmic side -->
      <defs>
       <path d="M 45.40625 46.390625 
L 45.40625 75.984375 
L 54.390625 75.984375 
L 54.390625 0 
L 45.40625 0 
L 45.40625 8.203125 
Q 42.578125 3.328125 38.25 0.953125 
Q 33.9375 -1.421875 27.875 -1.421875 
Q 17.96875 -1.421875 11.734375 6.484375 
Q 5.515625 14.40625 5.515625 27.296875 
Q 5.515625 40.1875 11.734375 48.09375 
Q 17.96875 56 27.875 56 
Q 33.9375 56 38.25 53.625 
Q 42.578125 51.265625 45.40625 46.390625 
z
M 14.796875 27.296875 
Q 14.796875 17.390625 18.875 11.75 
Q 22.953125 6.109375 30.078125 6.109375 
Q 37.203125 6.109375 41.296875 11.75 
Q 45.40625 17.390625 45.40625 27.296875 
Q 45.40625 37.203125 41.296875 42.84375 
Q 37.203125 48.484375 30.078125 48.484375 
Q 22.953125 48.484375 18.875 42.84375 
Q 14.796875 37.203125 14.796875 27.296875 
z
" id="DejaVuSans-100"/>
      </defs>
      <g transform="translate(89.395312 199.59455)scale(0.1 -0.1)">
       <use xlink:href="#DejaVuSans-99"/>
       <use x="54.980469" xlink:href="#DejaVuSans-121"/>
       <use x="114.160156" xlink:href="#DejaVuSans-116"/>
       <use x="153.369141" xlink:href="#DejaVuSans-111"/>
       <use x="214.550781" xlink:href="#DejaVuSans-112"/>
       <use x="278.027344" xlink:href="#DejaVuSans-108"/>
       <use x="305.810547" xlink:href="#DejaVuSans-97"/>
       <use x="367.089844" xlink:href="#DejaVuSans-115"/>
       <use x="419.189453" xlink:href="#DejaVuSans-109"/>
       <use x="516.601562" xlink:href="#DejaVuSans-105"/>
       <use x="544.384766" xlink:href="#DejaVuSans-99"/>
       <use x="599.365234" xlink:href="#DejaVuSans-32"/>
       <use x="631.152344" xlink:href="#DejaVuSans-115"/>
       <use x="683.251953" xlink:href="#DejaVuSans-105"/>
       <use x="711.035156" xlink:href="#DejaVuSans-100"/>
       <use x="774.511719" xlink:href="#DejaVuSans-101"/>
      </g>
     </g>
    </g>
    <g id="ytick_8">
     <g id="line2d_14">
      <g>
       <use style="stroke:#000000;stroke-width:0.8;" x="180" xlink:href="#m7fe84d1a7b" y="179.1"/>
      </g>
     </g>
     <g id="text_14">
      <!-- lipid-anchor -->
      <defs>
       <path d="M 54.890625 33.015625 
L 54.890625 0 
L 45.90625 0 
L 45.90625 32.71875 
Q 45.90625 40.484375 42.875 44.328125 
Q 39.84375 48.1875 33.796875 48.1875 
Q 26.515625 48.1875 22.3125 43.546875 
Q 18.109375 38.921875 18.109375 30.90625 
L 18.109375 0 
L 9.078125 0 
L 9.078125 75.984375 
L 18.109375 75.984375 
L 18.109375 46.1875 
Q 21.34375 51.125 25.703125 53.5625 
Q 30.078125 56 35.796875 56 
Q 45.21875 56 50.046875 50.171875 
Q 54.890625 44.34375 54.890625 33.015625 
z
" id="DejaVuSans-104"/>
      </defs>
      <g transform="translate(113.829688 182.899219)scale(0.1 -0.1)">
       <use xlink:href="#DejaVuSans-108"/>
       <use x="27.783203" xlink:href="#DejaVuSans-105"/>
       <use x="55.566406" xlink:href="#DejaVuSans-112"/>
       <use x="119.042969" xlink:href="#DejaVuSans-105"/>
       <use x="146.826172" xlink:href="#DejaVuSans-100"/>
       <use x="210.302734" xlink:href="#DejaVuSans-45"/>
       <use x="246.386719" xlink:href="#DejaVuSans-97"/>
       <use x="307.666016" xlink:href="#DejaVuSans-110"/>
       <use x="371.044922" xlink:href="#DejaVuSans-99"/>
       <use x="426.025391" xlink:href="#DejaVuSans-104"/>
       <use x="489.404297" xlink:href="#DejaVuSans-111"/>
       <use x="550.585938" xlink:href="#DejaVuSans-114"/>
      </g>
     </g>
    </g>
    <g id="ytick_9">
     <g id="line2d_15">
      <g>
       <use style="stroke:#000000;stroke-width:0.8;" x="180" xlink:href="#m7fe84d1a7b" y="162.404668"/>
      </g>
     </g>
     <g id="text_15">
      <!-- single-pass membrane protein -->
      <g transform="translate(20.059375 166.203887)scale(0.1 -0.1)">
       <use xlink:href="#DejaVuSans-115"/>
       <use x="52.099609" xlink:href="#DejaVuSans-105"/>
       <use x="79.882812" xlink:href="#DejaVuSans-110"/>
       <use x="143.261719" xlink:href="#DejaVuSans-103"/>
       <use x="206.738281" xlink:href="#DejaVuSans-108"/>
       <use x="234.521484" xlink:href="#DejaVuSans-101"/>
       <use x="296.044922" xlink:href="#DejaVuSans-45"/>
       <use x="332.128906" xlink:href="#DejaVuSans-112"/>
       <use x="395.605469" xlink:href="#DejaVuSans-97"/>
       <use x="456.884766" xlink:href="#DejaVuSans-115"/>
       <use x="508.984375" xlink:href="#DejaVuSans-115"/>
       <use x="561.083984" xlink:href="#DejaVuSans-32"/>
       <use x="592.871094" xlink:href="#DejaVuSans-109"/>
       <use x="690.283203" xlink:href="#DejaVuSans-101"/>
       <use x="751.806641" xlink:href="#DejaVuSans-109"/>
       <use x="849.21875" xlink:href="#DejaVuSans-98"/>
       <use x="912.695312" xlink:href="#DejaVuSans-114"/>
       <use x="953.808594" xlink:href="#DejaVuSans-97"/>
       <use x="1015.087891" xlink:href="#DejaVuSans-110"/>
       <use x="1078.466797" xlink:href="#DejaVuSans-101"/>
       <use x="1139.990234" xlink:href="#DejaVuSans-32"/>
       <use x="1171.777344" xlink:href="#DejaVuSans-112"/>
       <use x="1235.253906" xlink:href="#DejaVuSans-114"/>
       <use x="1276.335938" xlink:href="#DejaVuSans-111"/>
       <use x="1337.517578" xlink:href="#DejaVuSans-116"/>
       <use x="1376.726562" xlink:href="#DejaVuSans-101"/>
       <use x="1438.25" xlink:href="#DejaVuSans-105"/>
       <use x="1466.033203" xlink:href="#DejaVuSans-110"/>
      </g>
     </g>
    </g>
    <g id="ytick_10">
     <g id="line2d_16">
      <g>
       <use style="stroke:#000000;stroke-width:0.8;" x="180" xlink:href="#m7fe84d1a7b" y="145.709337"/>
      </g>
     </g>
     <g id="text_16">
      <!-- cell junction -->
      <g transform="translate(112.507812 149.508555)scale(0.1 -0.1)">
       <use xlink:href="#DejaVuSans-99"/>
       <use x="54.980469" xlink:href="#DejaVuSans-101"/>
       <use x="116.503906" xlink:href="#DejaVuSans-108"/>
       <use x="144.287109" xlink:href="#DejaVuSans-108"/>
       <use x="172.070312" xlink:href="#DejaVuSans-32"/>
       <use x="203.857422" xlink:href="#DejaVuSans-106"/>
       <use x="231.640625" xlink:href="#DejaVuSans-117"/>
       <use x="295.019531" xlink:href="#DejaVuSans-110"/>
       <use x="358.398438" xlink:href="#DejaVuSans-99"/>
       <use x="413.378906" xlink:href="#DejaVuSans-116"/>
       <use x="452.587891" xlink:href="#DejaVuSans-105"/>
       <use x="480.371094" xlink:href="#DejaVuSans-111"/>
       <use x="541.552734" xlink:href="#DejaVuSans-110"/>
      </g>
     </g>
    </g>
    <g id="ytick_11">
     <g id="line2d_17">
      <g>
       <use style="stroke:#000000;stroke-width:0.8;" x="180" xlink:href="#m7fe84d1a7b" y="129.014005"/>
      </g>
     </g>
     <g id="text_17">
      <!-- membrane -->
      <g transform="translate(118.2875 132.813224)scale(0.1 -0.1)">
       <use xlink:href="#DejaVuSans-109"/>
       <use x="97.412109" xlink:href="#DejaVuSans-101"/>
       <use x="158.935547" xlink:href="#DejaVuSans-109"/>
       <use x="256.347656" xlink:href="#DejaVuSans-98"/>
       <use x="319.824219" xlink:href="#DejaVuSans-114"/>
       <use x="360.9375" xlink:href="#DejaVuSans-97"/>
       <use x="422.216797" xlink:href="#DejaVuSans-110"/>
       <use x="485.595703" xlink:href="#DejaVuSans-101"/>
      </g>
     </g>
    </g>
    <g id="ytick_12">
     <g id="line2d_18">
      <g>
       <use style="stroke:#000000;stroke-width:0.8;" x="180" xlink:href="#m7fe84d1a7b" y="112.318673"/>
      </g>
     </g>
     <g id="text_18">
      <!-- mitochondrion inner membrane -->
      <g transform="translate(13.670312 116.117892)scale(0.1 -0.1)">
       <use xlink:href="#DejaVuSans-109"/>
       <use x="97.412109" xlink:href="#DejaVuSans-105"/>
       <use x="125.195312" xlink:href="#DejaVuSans-116"/>
       <use x="164.404297" xlink:href="#DejaVuSans-111"/>
       <use x="225.585938" xlink:href="#DejaVuSans-99"/>
       <use x="280.566406" xlink:href="#DejaVuSans-104"/>
       <use x="343.945312" xlink:href="#DejaVuSans-111"/>
       <use x="405.126953" xlink:href="#DejaVuSans-110"/>
       <use x="468.505859" xlink:href="#DejaVuSans-100"/>
       <use x="531.982422" xlink:href="#DejaVuSans-114"/>
       <use x="573.095703" xlink:href="#DejaVuSans-105"/>
       <use x="600.878906" xlink:href="#DejaVuSans-111"/>
       <use x="662.060547" xlink:href="#DejaVuSans-110"/>
       <use x="725.439453" xlink:href="#DejaVuSans-32"/>
       <use x="757.226562" xlink:href="#DejaVuSans-105"/>
       <use x="785.009766" xlink:href="#DejaVuSans-110"/>
       <use x="848.388672" xlink:href="#DejaVuSans-110"/>
       <use x="911.767578" xlink:href="#DejaVuSans-101"/>
       <use x="973.291016" xlink:href="#DejaVuSans-114"/>
       <use x="1014.404297" xlink:href="#DejaVuSans-32"/>
       <use x="1046.191406" xlink:href="#DejaVuSans-109"/>
       <use x="1143.603516" xlink:href="#DejaVuSans-101"/>
       <use x="1205.126953" xlink:href="#DejaVuSans-109"/>
       <use x="1302.539062" xlink:href="#DejaVuSans-98"/>
       <use x="1366.015625" xlink:href="#DejaVuSans-114"/>
       <use x="1407.128906" xlink:href="#DejaVuSans-97"/>
       <use x="1468.408203" xlink:href="#DejaVuSans-110"/>
       <use x="1531.787109" xlink:href="#DejaVuSans-101"/>
      </g>
     </g>
    </g>
    <g id="ytick_13">
     <g id="line2d_19">
      <g>
       <use style="stroke:#000000;stroke-width:0.8;" x="180" xlink:href="#m7fe84d1a7b" y="95.623342"/>
      </g>
     </g>
     <g id="text_19">
      <!-- mitochondrion -->
      <g transform="translate(100.45625 99.42256)scale(0.1 -0.1)">
       <use xlink:href="#DejaVuSans-109"/>
       <use x="97.412109" xlink:href="#DejaVuSans-105"/>
       <use x="125.195312" xlink:href="#DejaVuSans-116"/>
       <use x="164.404297" xlink:href="#DejaVuSans-111"/>
       <use x="225.585938" xlink:href="#DejaVuSans-99"/>
       <use x="280.566406" xlink:href="#DejaVuSans-104"/>
       <use x="343.945312" xlink:href="#DejaVuSans-111"/>
       <use x="405.126953" xlink:href="#DejaVuSans-110"/>
       <use x="468.505859" xlink:href="#DejaVuSans-100"/>
       <use x="531.982422" xlink:href="#DejaVuSans-114"/>
       <use x="573.095703" xlink:href="#DejaVuSans-105"/>
       <use x="600.878906" xlink:href="#DejaVuSans-111"/>
       <use x="662.060547" xlink:href="#DejaVuSans-110"/>
      </g>
     </g>
    </g>
    <g id="ytick_14">
     <g id="line2d_20">
      <g>
       <use style="stroke:#000000;stroke-width:0.8;" x="180" xlink:href="#m7fe84d1a7b" y="78.92801"/>
      </g>
     </g>
     <g id="text_20">
      <!-- cytoskeleton -->
      <defs>
       <path d="M 9.078125 75.984375 
L 18.109375 75.984375 
L 18.109375 31.109375 
L 44.921875 54.6875 
L 56.390625 54.6875 
L 27.390625 29.109375 
L 57.625 0 
L 45.90625 0 
L 18.109375 26.703125 
L 18.109375 0 
L 9.078125 0 
z
" id="DejaVuSans-107"/>
      </defs>
      <g transform="translate(109.0875 82.727229)scale(0.1 -0.1)">
       <use xlink:href="#DejaVuSans-99"/>
       <use x="54.980469" xlink:href="#DejaVuSans-121"/>
       <use x="114.160156" xlink:href="#DejaVuSans-116"/>
       <use x="153.369141" xlink:href="#DejaVuSans-111"/>
       <use x="214.550781" xlink:href="#DejaVuSans-115"/>
       <use x="266.650391" xlink:href="#DejaVuSans-107"/>
       <use x="324.513672" xlink:href="#DejaVuSans-101"/>
       <use x="386.037109" xlink:href="#DejaVuSans-108"/>
       <use x="413.820312" xlink:href="#DejaVuSans-101"/>
       <use x="475.34375" xlink:href="#DejaVuSans-116"/>
       <use x="514.552734" xlink:href="#DejaVuSans-111"/>
       <use x="575.734375" xlink:href="#DejaVuSans-110"/>
      </g>
     </g>
    </g>
    <g id="ytick_15">
     <g id="line2d_21">
      <g>
       <use style="stroke:#000000;stroke-width:0.8;" x="180" xlink:href="#m7fe84d1a7b" y="62.232678"/>
      </g>
     </g>
     <g id="text_21">
      <!-- endoplasmic reticulum membrane -->
      <g transform="translate(0.840625 66.031897)scale(0.1 -0.1)">
       <use xlink:href="#DejaVuSans-101"/>
       <use x="61.523438" xlink:href="#DejaVuSans-110"/>
       <use x="124.902344" xlink:href="#DejaVuSans-100"/>
       <use x="188.378906" xlink:href="#DejaVuSans-111"/>
       <use x="249.560547" xlink:href="#DejaVuSans-112"/>
       <use x="313.037109" xlink:href="#DejaVuSans-108"/>
       <use x="340.820312" xlink:href="#DejaVuSans-97"/>
       <use x="402.099609" xlink:href="#DejaVuSans-115"/>
       <use x="454.199219" xlink:href="#DejaVuSans-109"/>
       <use x="551.611328" xlink:href="#DejaVuSans-105"/>
       <use x="579.394531" xlink:href="#DejaVuSans-99"/>
       <use x="634.375" xlink:href="#DejaVuSans-32"/>
       <use x="666.162109" xlink:href="#DejaVuSans-114"/>
       <use x="707.244141" xlink:href="#DejaVuSans-101"/>
       <use x="768.767578" xlink:href="#DejaVuSans-116"/>
       <use x="807.976562" xlink:href="#DejaVuSans-105"/>
       <use x="835.759766" xlink:href="#DejaVuSans-99"/>
       <use x="890.740234" xlink:href="#DejaVuSans-117"/>
       <use x="954.119141" xlink:href="#DejaVuSans-108"/>
       <use x="981.902344" xlink:href="#DejaVuSans-117"/>
       <use x="1045.28125" xlink:href="#DejaVuSans-109"/>
       <use x="1142.693359" xlink:href="#DejaVuSans-32"/>
       <use x="1174.480469" xlink:href="#DejaVuSans-109"/>
       <use x="1271.892578" xlink:href="#DejaVuSans-101"/>
       <use x="1333.416016" xlink:href="#DejaVuSans-109"/>
       <use x="1430.828125" xlink:href="#DejaVuSans-98"/>
       <use x="1494.304688" xlink:href="#DejaVuSans-114"/>
       <use x="1535.417969" xlink:href="#DejaVuSans-97"/>
       <use x="1596.697266" xlink:href="#DejaVuSans-110"/>
       <use x="1660.076172" xlink:href="#DejaVuSans-101"/>
      </g>
     </g>
    </g>
   </g>
   <g id="patch_18">
    <path d="M 180 315 
L 180 43.2 
" style="fill:none;stroke:#000000;stroke-linecap:square;stroke-linejoin:miter;stroke-width:0.8;"/>
   </g>
   <g id="patch_19">
    <path d="M 578.571429 315 
L 578.571429 43.2 
" style="fill:none;stroke:#000000;stroke-linecap:square;stroke-linejoin:miter;stroke-width:0.8;"/>
   </g>
   <g id="patch_20">
    <path d="M 180 315 
L 578.571429 315 
" style="fill:none;stroke:#000000;stroke-linecap:square;stroke-linejoin:miter;stroke-width:0.8;"/>
   </g>
   <g id="patch_21">
    <path d="M 180 43.2 
L 578.571429 43.2 
" style="fill:none;stroke:#000000;stroke-linecap:square;stroke-linejoin:miter;stroke-width:0.8;"/>
   </g>
   <g id="text_22">
    <!-- C18 -->
    <defs>
     <path d="M 64.40625 67.28125 
L 64.40625 56.890625 
Q 59.421875 61.53125 53.78125 63.8125 
Q 48.140625 66.109375 41.796875 66.109375 
Q 29.296875 66.109375 22.65625 58.46875 
Q 16.015625 50.828125 16.015625 36.375 
Q 16.015625 21.96875 22.65625 14.328125 
Q 29.296875 6.6875 41.796875 6.6875 
Q 48.140625 6.6875 53.78125 8.984375 
Q 59.421875 11.28125 64.40625 15.921875 
L 64.40625 5.609375 
Q 59.234375 2.09375 53.4375 0.328125 
Q 47.65625 -1.421875 41.21875 -1.421875 
Q 24.65625 -1.421875 15.125 8.703125 
Q 5.609375 18.84375 5.609375 36.375 
Q 5.609375 53.953125 15.125 64.078125 
Q 24.65625 74.21875 41.21875 74.21875 
Q 47.75 74.21875 53.53125 72.484375 
Q 59.328125 70.75 64.40625 67.28125 
z
" id="DejaVuSans-67"/>
     <path d="M 31.78125 34.625 
Q 24.75 34.625 20.71875 30.859375 
Q 16.703125 27.09375 16.703125 20.515625 
Q 16.703125 13.921875 20.71875 10.15625 
Q 24.75 6.390625 31.78125 6.390625 
Q 38.8125 6.390625 42.859375 10.171875 
Q 46.921875 13.96875 46.921875 20.515625 
Q 46.921875 27.09375 42.890625 30.859375 
Q 38.875 34.625 31.78125 34.625 
z
M 21.921875 38.8125 
Q 15.578125 40.375 12.03125 44.71875 
Q 8.5 49.078125 8.5 55.328125 
Q 8.5 64.0625 14.71875 69.140625 
Q 20.953125 74.21875 31.78125 74.21875 
Q 42.671875 74.21875 48.875 69.140625 
Q 55.078125 64.0625 55.078125 55.328125 
Q 55.078125 49.078125 51.53125 44.71875 
Q 48 40.375 41.703125 38.8125 
Q 48.828125 37.15625 52.796875 32.3125 
Q 56.78125 27.484375 56.78125 20.515625 
Q 56.78125 9.90625 50.3125 4.234375 
Q 43.84375 -1.421875 31.78125 -1.421875 
Q 19.734375 -1.421875 13.25 4.234375 
Q 6.78125 9.90625 6.78125 20.515625 
Q 6.78125 27.484375 10.78125 32.3125 
Q 14.796875 37.15625 21.921875 38.8125 
z
M 18.3125 54.390625 
Q 18.3125 48.734375 21.84375 45.5625 
Q 25.390625 42.390625 31.78125 42.390625 
Q 38.140625 42.390625 41.71875 45.5625 
Q 45.3125 48.734375 45.3125 54.390625 
Q 45.3125 60.0625 41.71875 63.234375 
Q 38.140625 66.40625 31.78125 66.40625 
Q 25.390625 66.40625 21.84375 63.234375 
Q 18.3125 60.0625 18.3125 54.390625 
z
" id="DejaVuSans-56"/>
    </defs>
    <g transform="translate(367.461027 37.2)scale(0.12 -0.12)">
     <use xlink:href="#DejaVuSans-67"/>
     <use x="69.824219" xlink:href="#DejaVuSans-49"/>
     <use x="133.447266" xlink:href="#DejaVuSans-56"/>
    </g>
   </g>
  </g>
  <g id="axes_2">
   <g id="patch_22">
    <path d="M 897.428571 315 
L 1296 315 
L 1296 43.2 
L 897.428571 43.2 
z
" style="fill:#ffffff;"/>
   </g>
   <g id="patch_23">
    <path clip-path="url(#p6609d9418c)" d="M 897.428571 302.645455 
L 956.739796 302.645455 
L 956.739796 289.289189 
L 897.428571 289.289189 
z
" style="fill:#1f77b4;"/>
   </g>
   <g id="patch_24">
    <path clip-path="url(#p6609d9418c)" d="M 897.428571 285.950123 
L 956.739796 285.950123 
L 956.739796 272.593857 
L 897.428571 272.593857 
z
" style="fill:#1f77b4;"/>
   </g>
   <g id="patch_25">
    <path clip-path="url(#p6609d9418c)" d="M 897.428571 269.254791 
L 968.602041 269.254791 
L 968.602041 255.898526 
L 897.428571 255.898526 
z
" style="fill:#1f77b4;"/>
   </g>
   <g id="patch_26">
    <path clip-path="url(#p6609d9418c)" d="M 897.428571 252.559459 
L 968.602041 252.559459 
L 968.602041 239.203194 
L 897.428571 239.203194 
z
" style="fill:#1f77b4;"/>
   </g>
   <g id="patch_27">
    <path clip-path="url(#p6609d9418c)" d="M 897.428571 235.864128 
L 980.464286 235.864128 
L 980.464286 222.507862 
L 897.428571 222.507862 
z
" style="fill:#1f77b4;"/>
   </g>
   <g id="patch_28">
    <path clip-path="url(#p6609d9418c)" d="M 897.428571 219.168796 
L 980.464286 219.168796 
L 980.464286 205.812531 
L 897.428571 205.812531 
z
" style="fill:#1f77b4;"/>
   </g>
   <g id="patch_29">
    <path clip-path="url(#p6609d9418c)" d="M 897.428571 202.473464 
L 980.464286 202.473464 
L 980.464286 189.117199 
L 897.428571 189.117199 
z
" style="fill:#1f77b4;"/>
   </g>
   <g id="patch_30">
    <path clip-path="url(#p6609d9418c)" d="M 897.428571 185.778133 
L 980.464286 185.778133 
L 980.464286 172.421867 
L 897.428571 172.421867 
z
" style="fill:#1f77b4;"/>
   </g>
   <g id="patch_31">
    <path clip-path="url(#p6609d9418c)" d="M 897.428571 169.082801 
L 992.326531 169.082801 
L 992.326531 155.726536 
L 897.428571 155.726536 
z
" style="fill:#1f77b4;"/>
   </g>
   <g id="patch_32">
    <path clip-path="url(#p6609d9418c)" d="M 897.428571 152.387469 
L 1016.05102 152.387469 
L 1016.05102 139.031204 
L 897.428571 139.031204 
z
" style="fill:#1f77b4;"/>
   </g>
   <g id="patch_33">
    <path clip-path="url(#p6609d9418c)" d="M 897.428571 135.692138 
L 1016.05102 135.692138 
L 1016.05102 122.335872 
L 897.428571 122.335872 
z
" style="fill:#1f77b4;"/>
   </g>
   <g id="patch_34">
    <path clip-path="url(#p6609d9418c)" d="M 897.428571 118.996806 
L 1039.77551 118.996806 
L 1039.77551 105.640541 
L 897.428571 105.640541 
z
" style="fill:#1f77b4;"/>
   </g>
   <g id="patch_35">
    <path clip-path="url(#p6609d9418c)" d="M 897.428571 102.301474 
L 1110.94898 102.301474 
L 1110.94898 88.945209 
L 897.428571 88.945209 
z
" style="fill:#1f77b4;"/>
   </g>
   <g id="patch_36">
    <path clip-path="url(#p6609d9418c)" d="M 897.428571 85.606143 
L 1134.673469 85.606143 
L 1134.673469 72.249877 
L 897.428571 72.249877 
z
" style="fill:#1f77b4;"/>
   </g>
   <g id="patch_37">
    <path clip-path="url(#p6609d9418c)" d="M 897.428571 68.910811 
L 1277.020408 68.910811 
L 1277.020408 55.554545 
L 897.428571 55.554545 
z
" style="fill:#1f77b4;"/>
   </g>
   <g id="matplotlib.axis_3">
    <g id="xtick_7">
     <g id="line2d_22">
      <g>
       <use style="stroke:#000000;stroke-width:0.8;" x="897.428571" xlink:href="#me9b83c616a" y="315"/>
      </g>
     </g>
     <g id="text_23">
      <!-- 0 -->
      <g transform="translate(894.247321 329.598437)scale(0.1 -0.1)">
       <use xlink:href="#DejaVuSans-48"/>
      </g>
     </g>
    </g>
    <g id="xtick_8">
     <g id="line2d_23">
      <g>
       <use style="stroke:#000000;stroke-width:0.8;" x="956.739796" xlink:href="#me9b83c616a" y="315"/>
      </g>
     </g>
     <g id="text_24">
      <!-- 5 -->
      <g transform="translate(953.558546 329.598437)scale(0.1 -0.1)">
       <use xlink:href="#DejaVuSans-53"/>
      </g>
     </g>
    </g>
    <g id="xtick_9">
     <g id="line2d_24">
      <g>
       <use style="stroke:#000000;stroke-width:0.8;" x="1016.05102" xlink:href="#me9b83c616a" y="315"/>
      </g>
     </g>
     <g id="text_25">
      <!-- 10 -->
      <g transform="translate(1009.68852 329.598437)scale(0.1 -0.1)">
       <use xlink:href="#DejaVuSans-49"/>
       <use x="63.623047" xlink:href="#DejaVuSans-48"/>
      </g>
     </g>
    </g>
    <g id="xtick_10">
     <g id="line2d_25">
      <g>
       <use style="stroke:#000000;stroke-width:0.8;" x="1075.362245" xlink:href="#me9b83c616a" y="315"/>
      </g>
     </g>
     <g id="text_26">
      <!-- 15 -->
      <g transform="translate(1068.999745 329.598437)scale(0.1 -0.1)">
       <use xlink:href="#DejaVuSans-49"/>
       <use x="63.623047" xlink:href="#DejaVuSans-53"/>
      </g>
     </g>
    </g>
    <g id="xtick_11">
     <g id="line2d_26">
      <g>
       <use style="stroke:#000000;stroke-width:0.8;" x="1134.673469" xlink:href="#me9b83c616a" y="315"/>
      </g>
     </g>
     <g id="text_27">
      <!-- 20 -->
      <g transform="translate(1128.310969 329.598437)scale(0.1 -0.1)">
       <use xlink:href="#DejaVuSans-50"/>
       <use x="63.623047" xlink:href="#DejaVuSans-48"/>
      </g>
     </g>
    </g>
    <g id="xtick_12">
     <g id="line2d_27">
      <g>
       <use style="stroke:#000000;stroke-width:0.8;" x="1193.984694" xlink:href="#me9b83c616a" y="315"/>
      </g>
     </g>
     <g id="text_28">
      <!-- 25 -->
      <g transform="translate(1187.622194 329.598437)scale(0.1 -0.1)">
       <use xlink:href="#DejaVuSans-50"/>
       <use x="63.623047" xlink:href="#DejaVuSans-53"/>
      </g>
     </g>
    </g>
    <g id="xtick_13">
     <g id="line2d_28">
      <g>
       <use style="stroke:#000000;stroke-width:0.8;" x="1253.295918" xlink:href="#me9b83c616a" y="315"/>
      </g>
     </g>
     <g id="text_29">
      <!-- 30 -->
      <defs>
       <path d="M 40.578125 39.3125 
Q 47.65625 37.796875 51.625 33 
Q 55.609375 28.21875 55.609375 21.1875 
Q 55.609375 10.40625 48.1875 4.484375 
Q 40.765625 -1.421875 27.09375 -1.421875 
Q 22.515625 -1.421875 17.65625 -0.515625 
Q 12.796875 0.390625 7.625 2.203125 
L 7.625 11.71875 
Q 11.71875 9.328125 16.59375 8.109375 
Q 21.484375 6.890625 26.8125 6.890625 
Q 36.078125 6.890625 40.9375 10.546875 
Q 45.796875 14.203125 45.796875 21.1875 
Q 45.796875 27.640625 41.28125 31.265625 
Q 36.765625 34.90625 28.71875 34.90625 
L 20.21875 34.90625 
L 20.21875 43.015625 
L 29.109375 43.015625 
Q 36.375 43.015625 40.234375 45.921875 
Q 44.09375 48.828125 44.09375 54.296875 
Q 44.09375 59.90625 40.109375 62.90625 
Q 36.140625 65.921875 28.71875 65.921875 
Q 24.65625 65.921875 20.015625 65.03125 
Q 15.375 64.15625 9.8125 62.3125 
L 9.8125 71.09375 
Q 15.4375 72.65625 20.34375 73.4375 
Q 25.25 74.21875 29.59375 74.21875 
Q 40.828125 74.21875 47.359375 69.109375 
Q 53.90625 64.015625 53.90625 55.328125 
Q 53.90625 49.265625 50.4375 45.09375 
Q 46.96875 40.921875 40.578125 39.3125 
z
" id="DejaVuSans-51"/>
      </defs>
      <g transform="translate(1246.933418 329.598437)scale(0.1 -0.1)">
       <use xlink:href="#DejaVuSans-51"/>
       <use x="63.623047" xlink:href="#DejaVuSans-48"/>
      </g>
     </g>
    </g>
   </g>
   <g id="matplotlib.axis_4">
    <g id="ytick_16">
     <g id="line2d_29">
      <g>
       <use style="stroke:#000000;stroke-width:0.8;" x="897.428571" xlink:href="#m7fe84d1a7b" y="295.967322"/>
      </g>
     </g>
     <g id="text_30">
      <!-- chromosome -->
      <g transform="translate(825.284821 299.766541)scale(0.1 -0.1)">
       <use xlink:href="#DejaVuSans-99"/>
       <use x="54.980469" xlink:href="#DejaVuSans-104"/>
       <use x="118.359375" xlink:href="#DejaVuSans-114"/>
       <use x="159.441406" xlink:href="#DejaVuSans-111"/>
       <use x="220.623047" xlink:href="#DejaVuSans-109"/>
       <use x="318.035156" xlink:href="#DejaVuSans-111"/>
       <use x="379.216797" xlink:href="#DejaVuSans-115"/>
       <use x="431.316406" xlink:href="#DejaVuSans-111"/>
       <use x="492.498047" xlink:href="#DejaVuSans-109"/>
       <use x="589.910156" xlink:href="#DejaVuSans-101"/>
      </g>
     </g>
    </g>
    <g id="ytick_17">
     <g id="line2d_30">
      <g>
       <use style="stroke:#000000;stroke-width:0.8;" x="897.428571" xlink:href="#m7fe84d1a7b" y="279.27199"/>
      </g>
     </g>
     <g id="text_31">
      <!-- nucleoplasm -->
      <g transform="translate(827.000446 283.071209)scale(0.1 -0.1)">
       <use xlink:href="#DejaVuSans-110"/>
       <use x="63.378906" xlink:href="#DejaVuSans-117"/>
       <use x="126.757812" xlink:href="#DejaVuSans-99"/>
       <use x="181.738281" xlink:href="#DejaVuSans-108"/>
       <use x="209.521484" xlink:href="#DejaVuSans-101"/>
       <use x="271.044922" xlink:href="#DejaVuSans-111"/>
       <use x="332.226562" xlink:href="#DejaVuSans-112"/>
       <use x="395.703125" xlink:href="#DejaVuSans-108"/>
       <use x="423.486328" xlink:href="#DejaVuSans-97"/>
       <use x="484.765625" xlink:href="#DejaVuSans-115"/>
       <use x="536.865234" xlink:href="#DejaVuSans-109"/>
      </g>
     </g>
    </g>
    <g id="ytick_18">
     <g id="line2d_31">
      <g>
       <use style="stroke:#000000;stroke-width:0.8;" x="897.428571" xlink:href="#m7fe84d1a7b" y="262.576658"/>
      </g>
     </g>
     <g id="text_32">
      <!-- multi-pass membrane protein. -->
      <defs>
       <path d="M 10.6875 12.40625 
L 21 12.40625 
L 21 0 
L 10.6875 0 
z
" id="DejaVuSans-46"/>
      </defs>
      <g transform="translate(738.359821 266.375877)scale(0.1 -0.1)">
       <use xlink:href="#DejaVuSans-109"/>
       <use x="97.412109" xlink:href="#DejaVuSans-117"/>
       <use x="160.791016" xlink:href="#DejaVuSans-108"/>
       <use x="188.574219" xlink:href="#DejaVuSans-116"/>
       <use x="227.783203" xlink:href="#DejaVuSans-105"/>
       <use x="255.566406" xlink:href="#DejaVuSans-45"/>
       <use x="291.650391" xlink:href="#DejaVuSans-112"/>
       <use x="355.126953" xlink:href="#DejaVuSans-97"/>
       <use x="416.40625" xlink:href="#DejaVuSans-115"/>
       <use x="468.505859" xlink:href="#DejaVuSans-115"/>
       <use x="520.605469" xlink:href="#DejaVuSans-32"/>
       <use x="552.392578" xlink:href="#DejaVuSans-109"/>
       <use x="649.804688" xlink:href="#DejaVuSans-101"/>
       <use x="711.328125" xlink:href="#DejaVuSans-109"/>
       <use x="808.740234" xlink:href="#DejaVuSans-98"/>
       <use x="872.216797" xlink:href="#DejaVuSans-114"/>
       <use x="913.330078" xlink:href="#DejaVuSans-97"/>
       <use x="974.609375" xlink:href="#DejaVuSans-110"/>
       <use x="1037.988281" xlink:href="#DejaVuSans-101"/>
       <use x="1099.511719" xlink:href="#DejaVuSans-32"/>
       <use x="1131.298828" xlink:href="#DejaVuSans-112"/>
       <use x="1194.775391" xlink:href="#DejaVuSans-114"/>
       <use x="1235.857422" xlink:href="#DejaVuSans-111"/>
       <use x="1297.039062" xlink:href="#DejaVuSans-116"/>
       <use x="1336.248047" xlink:href="#DejaVuSans-101"/>
       <use x="1397.771484" xlink:href="#DejaVuSans-105"/>
       <use x="1425.554688" xlink:href="#DejaVuSans-110"/>
       <use x="1488.933594" xlink:href="#DejaVuSans-46"/>
      </g>
     </g>
    </g>
    <g id="ytick_19">
     <g id="line2d_32">
      <g>
       <use style="stroke:#000000;stroke-width:0.8;" x="897.428571" xlink:href="#m7fe84d1a7b" y="245.881327"/>
      </g>
     </g>
     <g id="text_33">
      <!-- membrane -->
      <g transform="translate(835.716071 249.680546)scale(0.1 -0.1)">
       <use xlink:href="#DejaVuSans-109"/>
       <use x="97.412109" xlink:href="#DejaVuSans-101"/>
       <use x="158.935547" xlink:href="#DejaVuSans-109"/>
       <use x="256.347656" xlink:href="#DejaVuSans-98"/>
       <use x="319.824219" xlink:href="#DejaVuSans-114"/>
       <use x="360.9375" xlink:href="#DejaVuSans-97"/>
       <use x="422.216797" xlink:href="#DejaVuSans-110"/>
       <use x="485.595703" xlink:href="#DejaVuSans-101"/>
      </g>
     </g>
    </g>
    <g id="ytick_20">
     <g id="line2d_33">
      <g>
       <use style="stroke:#000000;stroke-width:0.8;" x="897.428571" xlink:href="#m7fe84d1a7b" y="229.185995"/>
      </g>
     </g>
     <g id="text_34">
      <!-- golgi apparatus membrane -->
      <g transform="translate(754.328571 232.985214)scale(0.1 -0.1)">
       <use xlink:href="#DejaVuSans-103"/>
       <use x="63.476562" xlink:href="#DejaVuSans-111"/>
       <use x="124.658203" xlink:href="#DejaVuSans-108"/>
       <use x="152.441406" xlink:href="#DejaVuSans-103"/>
       <use x="215.917969" xlink:href="#DejaVuSans-105"/>
       <use x="243.701172" xlink:href="#DejaVuSans-32"/>
       <use x="275.488281" xlink:href="#DejaVuSans-97"/>
       <use x="336.767578" xlink:href="#DejaVuSans-112"/>
       <use x="400.244141" xlink:href="#DejaVuSans-112"/>
       <use x="463.720703" xlink:href="#DejaVuSans-97"/>
       <use x="525" xlink:href="#DejaVuSans-114"/>
       <use x="566.113281" xlink:href="#DejaVuSans-97"/>
       <use x="627.392578" xlink:href="#DejaVuSans-116"/>
       <use x="666.601562" xlink:href="#DejaVuSans-117"/>
       <use x="729.980469" xlink:href="#DejaVuSans-115"/>
       <use x="782.080078" xlink:href="#DejaVuSans-32"/>
       <use x="813.867188" xlink:href="#DejaVuSans-109"/>
       <use x="911.279297" xlink:href="#DejaVuSans-101"/>
       <use x="972.802734" xlink:href="#DejaVuSans-109"/>
       <use x="1070.214844" xlink:href="#DejaVuSans-98"/>
       <use x="1133.691406" xlink:href="#DejaVuSans-114"/>
       <use x="1174.804688" xlink:href="#DejaVuSans-97"/>
       <use x="1236.083984" xlink:href="#DejaVuSans-110"/>
       <use x="1299.462891" xlink:href="#DejaVuSans-101"/>
      </g>
     </g>
    </g>
    <g id="ytick_21">
     <g id="line2d_34">
      <g>
       <use style="stroke:#000000;stroke-width:0.8;" x="897.428571" xlink:href="#m7fe84d1a7b" y="212.490663"/>
      </g>
     </g>
     <g id="text_35">
      <!-- cytoplasmic vesicle -->
      <g transform="translate(792.823884 216.289882)scale(0.1 -0.1)">
       <use xlink:href="#DejaVuSans-99"/>
       <use x="54.980469" xlink:href="#DejaVuSans-121"/>
       <use x="114.160156" xlink:href="#DejaVuSans-116"/>
       <use x="153.369141" xlink:href="#DejaVuSans-111"/>
       <use x="214.550781" xlink:href="#DejaVuSans-112"/>
       <use x="278.027344" xlink:href="#DejaVuSans-108"/>
       <use x="305.810547" xlink:href="#DejaVuSans-97"/>
       <use x="367.089844" xlink:href="#DejaVuSans-115"/>
       <use x="419.189453" xlink:href="#DejaVuSans-109"/>
       <use x="516.601562" xlink:href="#DejaVuSans-105"/>
       <use x="544.384766" xlink:href="#DejaVuSans-99"/>
       <use x="599.365234" xlink:href="#DejaVuSans-32"/>
       <use x="631.152344" xlink:href="#DejaVuSans-118"/>
       <use x="690.332031" xlink:href="#DejaVuSans-101"/>
       <use x="751.855469" xlink:href="#DejaVuSans-115"/>
       <use x="803.955078" xlink:href="#DejaVuSans-105"/>
       <use x="831.738281" xlink:href="#DejaVuSans-99"/>
       <use x="886.71875" xlink:href="#DejaVuSans-108"/>
       <use x="914.501953" xlink:href="#DejaVuSans-101"/>
      </g>
     </g>
    </g>
    <g id="ytick_22">
     <g id="line2d_35">
      <g>
       <use style="stroke:#000000;stroke-width:0.8;" x="897.428571" xlink:href="#m7fe84d1a7b" y="195.795332"/>
      </g>
     </g>
     <g id="text_36">
      <!-- mitochondrion -->
      <g transform="translate(817.884821 199.59455)scale(0.1 -0.1)">
       <use xlink:href="#DejaVuSans-109"/>
       <use x="97.412109" xlink:href="#DejaVuSans-105"/>
       <use x="125.195312" xlink:href="#DejaVuSans-116"/>
       <use x="164.404297" xlink:href="#DejaVuSans-111"/>
       <use x="225.585938" xlink:href="#DejaVuSans-99"/>
       <use x="280.566406" xlink:href="#DejaVuSans-104"/>
       <use x="343.945312" xlink:href="#DejaVuSans-111"/>
       <use x="405.126953" xlink:href="#DejaVuSans-110"/>
       <use x="468.505859" xlink:href="#DejaVuSans-100"/>
       <use x="531.982422" xlink:href="#DejaVuSans-114"/>
       <use x="573.095703" xlink:href="#DejaVuSans-105"/>
       <use x="600.878906" xlink:href="#DejaVuSans-111"/>
       <use x="662.060547" xlink:href="#DejaVuSans-110"/>
      </g>
     </g>
    </g>
    <g id="ytick_23">
     <g id="line2d_36">
      <g>
       <use style="stroke:#000000;stroke-width:0.8;" x="897.428571" xlink:href="#m7fe84d1a7b" y="179.1"/>
      </g>
     </g>
     <g id="text_37">
      <!-- peripheral membrane protein -->
      <g transform="translate(742.348884 182.899219)scale(0.1 -0.1)">
       <use xlink:href="#DejaVuSans-112"/>
       <use x="63.476562" xlink:href="#DejaVuSans-101"/>
       <use x="125" xlink:href="#DejaVuSans-114"/>
       <use x="166.113281" xlink:href="#DejaVuSans-105"/>
       <use x="193.896484" xlink:href="#DejaVuSans-112"/>
       <use x="257.373047" xlink:href="#DejaVuSans-104"/>
       <use x="320.751953" xlink:href="#DejaVuSans-101"/>
       <use x="382.275391" xlink:href="#DejaVuSans-114"/>
       <use x="423.388672" xlink:href="#DejaVuSans-97"/>
       <use x="484.667969" xlink:href="#DejaVuSans-108"/>
       <use x="512.451172" xlink:href="#DejaVuSans-32"/>
       <use x="544.238281" xlink:href="#DejaVuSans-109"/>
       <use x="641.650391" xlink:href="#DejaVuSans-101"/>
       <use x="703.173828" xlink:href="#DejaVuSans-109"/>
       <use x="800.585938" xlink:href="#DejaVuSans-98"/>
       <use x="864.0625" xlink:href="#DejaVuSans-114"/>
       <use x="905.175781" xlink:href="#DejaVuSans-97"/>
       <use x="966.455078" xlink:href="#DejaVuSans-110"/>
       <use x="1029.833984" xlink:href="#DejaVuSans-101"/>
       <use x="1091.357422" xlink:href="#DejaVuSans-32"/>
       <use x="1123.144531" xlink:href="#DejaVuSans-112"/>
       <use x="1186.621094" xlink:href="#DejaVuSans-114"/>
       <use x="1227.703125" xlink:href="#DejaVuSans-111"/>
       <use x="1288.884766" xlink:href="#DejaVuSans-116"/>
       <use x="1328.09375" xlink:href="#DejaVuSans-101"/>
       <use x="1389.617188" xlink:href="#DejaVuSans-105"/>
       <use x="1417.400391" xlink:href="#DejaVuSans-110"/>
      </g>
     </g>
    </g>
    <g id="ytick_24">
     <g id="line2d_37">
      <g>
       <use style="stroke:#000000;stroke-width:0.8;" x="897.428571" xlink:href="#m7fe84d1a7b" y="162.404668"/>
      </g>
     </g>
     <g id="text_38">
      <!-- lipid-anchor -->
      <g transform="translate(831.258259 166.203887)scale(0.1 -0.1)">
       <use xlink:href="#DejaVuSans-108"/>
       <use x="27.783203" xlink:href="#DejaVuSans-105"/>
       <use x="55.566406" xlink:href="#DejaVuSans-112"/>
       <use x="119.042969" xlink:href="#DejaVuSans-105"/>
       <use x="146.826172" xlink:href="#DejaVuSans-100"/>
       <use x="210.302734" xlink:href="#DejaVuSans-45"/>
       <use x="246.386719" xlink:href="#DejaVuSans-97"/>
       <use x="307.666016" xlink:href="#DejaVuSans-110"/>
       <use x="371.044922" xlink:href="#DejaVuSans-99"/>
       <use x="426.025391" xlink:href="#DejaVuSans-104"/>
       <use x="489.404297" xlink:href="#DejaVuSans-111"/>
       <use x="550.585938" xlink:href="#DejaVuSans-114"/>
      </g>
     </g>
    </g>
    <g id="ytick_25">
     <g id="line2d_38">
      <g>
       <use style="stroke:#000000;stroke-width:0.8;" x="897.428571" xlink:href="#m7fe84d1a7b" y="145.709337"/>
      </g>
     </g>
     <g id="text_39">
      <!-- cytoplasmic side -->
      <g transform="translate(806.823884 149.508555)scale(0.1 -0.1)">
       <use xlink:href="#DejaVuSans-99"/>
       <use x="54.980469" xlink:href="#DejaVuSans-121"/>
       <use x="114.160156" xlink:href="#DejaVuSans-116"/>
       <use x="153.369141" xlink:href="#DejaVuSans-111"/>
       <use x="214.550781" xlink:href="#DejaVuSans-112"/>
       <use x="278.027344" xlink:href="#DejaVuSans-108"/>
       <use x="305.810547" xlink:href="#DejaVuSans-97"/>
       <use x="367.089844" xlink:href="#DejaVuSans-115"/>
       <use x="419.189453" xlink:href="#DejaVuSans-109"/>
       <use x="516.601562" xlink:href="#DejaVuSans-105"/>
       <use x="544.384766" xlink:href="#DejaVuSans-99"/>
       <use x="599.365234" xlink:href="#DejaVuSans-32"/>
       <use x="631.152344" xlink:href="#DejaVuSans-115"/>
       <use x="683.251953" xlink:href="#DejaVuSans-105"/>
       <use x="711.035156" xlink:href="#DejaVuSans-100"/>
       <use x="774.511719" xlink:href="#DejaVuSans-101"/>
      </g>
     </g>
    </g>
    <g id="ytick_26">
     <g id="line2d_39">
      <g>
       <use style="stroke:#000000;stroke-width:0.8;" x="897.428571" xlink:href="#m7fe84d1a7b" y="129.014005"/>
      </g>
     </g>
     <g id="text_40">
      <!-- cytoskeleton -->
      <g transform="translate(826.516071 132.813224)scale(0.1 -0.1)">
       <use xlink:href="#DejaVuSans-99"/>
       <use x="54.980469" xlink:href="#DejaVuSans-121"/>
       <use x="114.160156" xlink:href="#DejaVuSans-116"/>
       <use x="153.369141" xlink:href="#DejaVuSans-111"/>
       <use x="214.550781" xlink:href="#DejaVuSans-115"/>
       <use x="266.650391" xlink:href="#DejaVuSans-107"/>
       <use x="324.513672" xlink:href="#DejaVuSans-101"/>
       <use x="386.037109" xlink:href="#DejaVuSans-108"/>
       <use x="413.820312" xlink:href="#DejaVuSans-101"/>
       <use x="475.34375" xlink:href="#DejaVuSans-116"/>
       <use x="514.552734" xlink:href="#DejaVuSans-111"/>
       <use x="575.734375" xlink:href="#DejaVuSans-110"/>
      </g>
     </g>
    </g>
    <g id="ytick_27">
     <g id="line2d_40">
      <g>
       <use style="stroke:#000000;stroke-width:0.8;" x="897.428571" xlink:href="#m7fe84d1a7b" y="112.318673"/>
      </g>
     </g>
     <g id="text_41">
      <!-- nucleolus -->
      <g transform="translate(842.880134 116.117892)scale(0.1 -0.1)">
       <use xlink:href="#DejaVuSans-110"/>
       <use x="63.378906" xlink:href="#DejaVuSans-117"/>
       <use x="126.757812" xlink:href="#DejaVuSans-99"/>
       <use x="181.738281" xlink:href="#DejaVuSans-108"/>
       <use x="209.521484" xlink:href="#DejaVuSans-101"/>
       <use x="271.044922" xlink:href="#DejaVuSans-111"/>
       <use x="332.226562" xlink:href="#DejaVuSans-108"/>
       <use x="360.009766" xlink:href="#DejaVuSans-117"/>
       <use x="423.388672" xlink:href="#DejaVuSans-115"/>
      </g>
     </g>
    </g>
    <g id="ytick_28">
     <g id="line2d_41">
      <g>
       <use style="stroke:#000000;stroke-width:0.8;" x="897.428571" xlink:href="#m7fe84d1a7b" y="95.623342"/>
      </g>
     </g>
     <g id="text_42">
      <!-- cell membrane -->
      <g transform="translate(815.330134 99.42256)scale(0.1 -0.1)">
       <use xlink:href="#DejaVuSans-99"/>
       <use x="54.980469" xlink:href="#DejaVuSans-101"/>
       <use x="116.503906" xlink:href="#DejaVuSans-108"/>
       <use x="144.287109" xlink:href="#DejaVuSans-108"/>
       <use x="172.070312" xlink:href="#DejaVuSans-32"/>
       <use x="203.857422" xlink:href="#DejaVuSans-109"/>
       <use x="301.269531" xlink:href="#DejaVuSans-101"/>
       <use x="362.792969" xlink:href="#DejaVuSans-109"/>
       <use x="460.205078" xlink:href="#DejaVuSans-98"/>
       <use x="523.681641" xlink:href="#DejaVuSans-114"/>
       <use x="564.794922" xlink:href="#DejaVuSans-97"/>
       <use x="626.074219" xlink:href="#DejaVuSans-110"/>
       <use x="689.453125" xlink:href="#DejaVuSans-101"/>
      </g>
     </g>
    </g>
    <g id="ytick_29">
     <g id="line2d_42">
      <g>
       <use style="stroke:#000000;stroke-width:0.8;" x="897.428571" xlink:href="#m7fe84d1a7b" y="78.92801"/>
      </g>
     </g>
     <g id="text_43">
      <!-- endoplasmic reticulum membrane -->
      <g transform="translate(718.269196 82.727229)scale(0.1 -0.1)">
       <use xlink:href="#DejaVuSans-101"/>
       <use x="61.523438" xlink:href="#DejaVuSans-110"/>
       <use x="124.902344" xlink:href="#DejaVuSans-100"/>
       <use x="188.378906" xlink:href="#DejaVuSans-111"/>
       <use x="249.560547" xlink:href="#DejaVuSans-112"/>
       <use x="313.037109" xlink:href="#DejaVuSans-108"/>
       <use x="340.820312" xlink:href="#DejaVuSans-97"/>
       <use x="402.099609" xlink:href="#DejaVuSans-115"/>
       <use x="454.199219" xlink:href="#DejaVuSans-109"/>
       <use x="551.611328" xlink:href="#DejaVuSans-105"/>
       <use x="579.394531" xlink:href="#DejaVuSans-99"/>
       <use x="634.375" xlink:href="#DejaVuSans-32"/>
       <use x="666.162109" xlink:href="#DejaVuSans-114"/>
       <use x="707.244141" xlink:href="#DejaVuSans-101"/>
       <use x="768.767578" xlink:href="#DejaVuSans-116"/>
       <use x="807.976562" xlink:href="#DejaVuSans-105"/>
       <use x="835.759766" xlink:href="#DejaVuSans-99"/>
       <use x="890.740234" xlink:href="#DejaVuSans-117"/>
       <use x="954.119141" xlink:href="#DejaVuSans-108"/>
       <use x="981.902344" xlink:href="#DejaVuSans-117"/>
       <use x="1045.28125" xlink:href="#DejaVuSans-109"/>
       <use x="1142.693359" xlink:href="#DejaVuSans-32"/>
       <use x="1174.480469" xlink:href="#DejaVuSans-109"/>
       <use x="1271.892578" xlink:href="#DejaVuSans-101"/>
       <use x="1333.416016" xlink:href="#DejaVuSans-109"/>
       <use x="1430.828125" xlink:href="#DejaVuSans-98"/>
       <use x="1494.304688" xlink:href="#DejaVuSans-114"/>
       <use x="1535.417969" xlink:href="#DejaVuSans-97"/>
       <use x="1596.697266" xlink:href="#DejaVuSans-110"/>
       <use x="1660.076172" xlink:href="#DejaVuSans-101"/>
      </g>
     </g>
    </g>
    <g id="ytick_30">
     <g id="line2d_43">
      <g>
       <use style="stroke:#000000;stroke-width:0.8;" x="897.428571" xlink:href="#m7fe84d1a7b" y="62.232678"/>
      </g>
     </g>
     <g id="text_44">
      <!-- multi-pass membrane protein -->
      <g transform="translate(741.537946 66.031897)scale(0.1 -0.1)">
       <use xlink:href="#DejaVuSans-109"/>
       <use x="97.412109" xlink:href="#DejaVuSans-117"/>
       <use x="160.791016" xlink:href="#DejaVuSans-108"/>
       <use x="188.574219" xlink:href="#DejaVuSans-116"/>
       <use x="227.783203" xlink:href="#DejaVuSans-105"/>
       <use x="255.566406" xlink:href="#DejaVuSans-45"/>
       <use x="291.650391" xlink:href="#DejaVuSans-112"/>
       <use x="355.126953" xlink:href="#DejaVuSans-97"/>
       <use x="416.40625" xlink:href="#DejaVuSans-115"/>
       <use x="468.505859" xlink:href="#DejaVuSans-115"/>
       <use x="520.605469" xlink:href="#DejaVuSans-32"/>
       <use x="552.392578" xlink:href="#DejaVuSans-109"/>
       <use x="649.804688" xlink:href="#DejaVuSans-101"/>
       <use x="711.328125" xlink:href="#DejaVuSans-109"/>
       <use x="808.740234" xlink:href="#DejaVuSans-98"/>
       <use x="872.216797" xlink:href="#DejaVuSans-114"/>
       <use x="913.330078" xlink:href="#DejaVuSans-97"/>
       <use x="974.609375" xlink:href="#DejaVuSans-110"/>
       <use x="1037.988281" xlink:href="#DejaVuSans-101"/>
       <use x="1099.511719" xlink:href="#DejaVuSans-32"/>
       <use x="1131.298828" xlink:href="#DejaVuSans-112"/>
       <use x="1194.775391" xlink:href="#DejaVuSans-114"/>
       <use x="1235.857422" xlink:href="#DejaVuSans-111"/>
       <use x="1297.039062" xlink:href="#DejaVuSans-116"/>
       <use x="1336.248047" xlink:href="#DejaVuSans-101"/>
       <use x="1397.771484" xlink:href="#DejaVuSans-105"/>
       <use x="1425.554688" xlink:href="#DejaVuSans-110"/>
      </g>
     </g>
    </g>
   </g>
   <g id="patch_38">
    <path d="M 897.428571 315 
L 897.428571 43.2 
" style="fill:none;stroke:#000000;stroke-linecap:square;stroke-linejoin:miter;stroke-width:0.8;"/>
   </g>
   <g id="patch_39">
    <path d="M 1296 315 
L 1296 43.2 
" style="fill:none;stroke:#000000;stroke-linecap:square;stroke-linejoin:miter;stroke-width:0.8;"/>
   </g>
   <g id="patch_40">
    <path d="M 897.428571 315 
L 1296 315 
" style="fill:none;stroke:#000000;stroke-linecap:square;stroke-linejoin:miter;stroke-width:0.8;"/>
   </g>
   <g id="patch_41">
    <path d="M 897.428571 43.2 
L 1296 43.2 
" style="fill:none;stroke:#000000;stroke-linecap:square;stroke-linejoin:miter;stroke-width:0.8;"/>
   </g>
   <g id="text_45">
    <!-- PGC -->
    <defs>
     <path d="M 19.671875 64.796875 
L 19.671875 37.40625 
L 32.078125 37.40625 
Q 38.96875 37.40625 42.71875 40.96875 
Q 46.484375 44.53125 46.484375 51.125 
Q 46.484375 57.671875 42.71875 61.234375 
Q 38.96875 64.796875 32.078125 64.796875 
z
M 9.8125 72.90625 
L 32.078125 72.90625 
Q 44.34375 72.90625 50.609375 67.359375 
Q 56.890625 61.8125 56.890625 51.125 
Q 56.890625 40.328125 50.609375 34.8125 
Q 44.34375 29.296875 32.078125 29.296875 
L 19.671875 29.296875 
L 19.671875 0 
L 9.8125 0 
z
" id="DejaVuSans-80"/>
     <path d="M 59.515625 10.40625 
L 59.515625 29.984375 
L 43.40625 29.984375 
L 43.40625 38.09375 
L 69.28125 38.09375 
L 69.28125 6.78125 
Q 63.578125 2.734375 56.6875 0.65625 
Q 49.8125 -1.421875 42 -1.421875 
Q 24.90625 -1.421875 15.25 8.5625 
Q 5.609375 18.5625 5.609375 36.375 
Q 5.609375 54.25 15.25 64.234375 
Q 24.90625 74.21875 42 74.21875 
Q 49.125 74.21875 55.546875 72.453125 
Q 61.96875 70.703125 67.390625 67.28125 
L 67.390625 56.78125 
Q 61.921875 61.421875 55.765625 63.765625 
Q 49.609375 66.109375 42.828125 66.109375 
Q 29.4375 66.109375 22.71875 58.640625 
Q 16.015625 51.171875 16.015625 36.375 
Q 16.015625 21.625 22.71875 14.15625 
Q 29.4375 6.6875 42.828125 6.6875 
Q 48.046875 6.6875 52.140625 7.59375 
Q 56.25 8.5 59.515625 10.40625 
z
" id="DejaVuSans-71"/>
    </defs>
    <g transform="translate(1084.257723 37.2)scale(0.12 -0.12)">
     <use xlink:href="#DejaVuSans-80"/>
     <use x="60.302734" xlink:href="#DejaVuSans-71"/>
     <use x="137.792969" xlink:href="#DejaVuSans-67"/>
    </g>
   </g>
  </g>
 </g>
 <defs>
  <clipPath id="pd76ad57df6">
   <rect height="271.8" width="398.571429" x="180" y="43.2"/>
  </clipPath>
  <clipPath id="p6609d9418c">
   <rect height="271.8" width="398.571429" x="897.428571" y="43.2"/>
  </clipPath>
 </defs>
</svg>
